<?xml version="1.0" standalone="no"?><!DOCTYPE svg PUBLIC "-//W3C//DTD SVG 1.1//EN" "http://www.w3.org/Graphics/SVG/1.1/DTD/svg11.dtd"><svg width="100%" height="100%" viewBox="0 0 799 737" version="1.1" xmlns="http://www.w3.org/2000/svg" xmlns:xlink="http://www.w3.org/1999/xlink" xml:space="preserve" style="fill-rule:evenodd;clip-rule:evenodd;stroke-linejoin:round;stroke-miterlimit:1.41421;"><path d="M787.603,168.135c12.8103,18.2547 15.6926,38.9112 8.64694,61.9698l-132.106,435.23c-6.08489,20.4965 -18.3347,37.7103 -36.7495,51.6415c-18.4148,13.9312 -38.0305,20.8968 -58.8473,20.8968l-443.396,0c-24.6598,0 -48.4389,-8.56688 -71.3373,-25.7006c-22.8984,-17.1338 -38.8312,-38.1907 -47.7984,-63.1707c-7.68617,-21.4572 -8.00643,-41.7936 -0.960772,-61.009c0,-1.28103 0.480386,-5.6045 1.44116,-12.9704c0.960772,-7.36592 1.60129,-13.2907 1.92154,-17.7743c0.320257,-2.56206 -0.160129,-6.00482 -1.44116,-10.3283c-1.28103,-4.32347 -1.76141,-7.44598 -1.44116,-9.36752c0.640514,-3.52283 1.92154,-6.88553 3.84309,-10.0881c1.92154,-3.20257 4.56367,-6.96559 7.92637,-11.2891c3.3627,-4.32347 6.00482,-8.08649 7.92637,-11.2891c7.36592,-12.1698 14.5717,-26.8215 21.6174,-43.9553c7.04566,-17.1338 11.8495,-31.7855 14.4116,-43.9553c0.960772,-3.20257 1.04084,-8.00643 0.240193,-14.4116c-0.800643,-6.40514 -0.880707,-10.8887 -0.240193,-13.4508c0.960772,-3.52283 3.68296,-8.00643 8.16656,-13.4508c4.4836,-5.44437 7.20579,-9.12733 8.16656,-11.0489c6.7254,-11.5293 13.4508,-26.2611 20.1762,-44.1955c6.7254,-17.9344 10.7286,-32.346 12.0096,-43.2347c0.320257,-2.88231 -0.0800643,-8.00643 -1.20096,-15.3723c-1.1209,-7.36592 -1.04084,-11.8495 0.240193,-13.4508c1.28103,-4.16334 4.80386,-9.04727 10.5685,-14.6518c5.76463,-5.6045 9.28746,-9.20739 10.5685,-10.8087c6.08489,-8.32669 12.8904,-21.8576 20.4164,-40.5926c7.52604,-18.735 11.9296,-34.1875 13.2106,-46.3572c0.320257,-2.56206 -0.160129,-6.64534 -1.44116,-12.2498c-1.28103,-5.6045 -1.60129,-9.84791 -0.960772,-12.7302c0.640514,-2.56206 2.08167,-5.44437 4.32347,-8.64694c2.2418,-3.20257 5.12412,-6.88553 8.64694,-11.0489c3.52283,-4.16334 6.24502,-7.52604 8.16656,-10.0881c2.56206,-3.84309 5.20418,-8.72701 7.92637,-14.6518c2.72219,-5.92476 5.12412,-11.5293 7.20579,-16.8135c2.08167,-5.28424 4.64373,-11.0489 7.68617,-17.2939c3.04244,-6.24502 6.16495,-11.3691 9.36752,-15.3723c3.20257,-4.00321 7.44598,-7.76624 12.7302,-11.2891c5.28424,-3.52283 11.0489,-5.36431 17.2939,-5.52444c6.24502,-0.160129 13.8511,0.720579 22.8183,2.64212l-0.480386,1.44116c12.1698,-2.88231 20.3363,-4.32347 24.4997,-4.32347l365.574,0c23.699,0 41.9537,8.9672 54.764,26.9016c12.8103,17.9344 15.6926,38.7511 8.64694,62.4502l-131.626,435.23c-11.5293,38.1106 -22.9785,62.6903 -34.3476,73.7392c-11.3691,11.0489 -31.9457,16.5733 -61.7296,16.5733l-417.455,0c-8.64694,0 -14.7318,2.40193 -18.2547,7.20579c-3.52283,5.12412 -3.68296,12.0096 -0.480386,20.6566c7.68617,22.418 30.7447,33.627 69.1756,33.627l443.396,0c9.28746,0 18.2547,-2.48199 26.9016,-7.44598c8.64694,-4.96399 14.2514,-11.6093 16.8135,-19.936l144.116,-474.141c2.2418,-7.04566 3.04244,-16.173 2.40193,-27.382c12.1698,4.80386 21.6174,11.6894 28.3428,20.6566ZM276.472,169.096c-1.28103,4.16334 -0.960772,7.76624 0.960772,10.8087c1.92154,3.04244 5.12412,4.56367 9.60772,4.56367l292.075,0c4.16334,0 8.24662,-1.52122 12.2498,-4.56367c4.00321,-3.04244 6.64534,-6.64534 7.92637,-10.8087l10.0881,-30.7447c1.28103,-4.16334 0.960772,-7.76624 -0.960772,-10.8087c-1.92154,-3.04244 -5.12412,-4.56367 -9.60772,-4.56367l-292.075,0c-4.16334,0 -8.24662,1.52122 -12.2498,4.56367c-4.00321,3.04244 -6.64534,6.64534 -7.92637,10.8087l-10.0881,30.7447ZM236.6,292.075c-1.28103,4.16334 -0.960772,7.76624 0.960772,10.8087c1.92154,3.04244 5.12412,4.56367 9.60772,4.56367l292.075,0c4.16334,0 8.24662,-1.52122 12.2498,-4.56367c4.00321,-3.04244 6.64534,-6.64534 7.92637,-10.8087l10.0881,-30.7447c1.28103,-4.16334 0.960772,-7.76624 -0.960772,-10.8087c-1.92154,-3.04244 -5.12412,-4.56367 -9.60772,-4.56367l-292.075,0c-4.16334,0 -8.24662,1.52122 -12.2498,4.56367c-4.00321,3.04244 -6.64534,6.64534 -7.92637,10.8087l-10.0881,30.7447Z" style="fill:#fff;fill-rule:nonzero;"/></svg>