<?xml version="1.0" standalone="no"?><!DOCTYPE svg PUBLIC "-//W3C//DTD SVG 1.1//EN" "http://www.w3.org/Graphics/SVG/1.1/DTD/svg11.dtd"><svg width="100%" height="100%" viewBox="0 0 800 649" version="1.1" xmlns="http://www.w3.org/2000/svg" xmlns:xlink="http://www.w3.org/1999/xlink" xml:space="preserve" style="fill-rule:evenodd;clip-rule:evenodd;stroke-linejoin:round;stroke-miterlimit:1.41421;"><g id="Twitter"><path d="M800,77.1574c-22.6734,33.1641 -50.0846,61.4213 -82.2335,84.7716c0.338409,4.73773 0.507614,11.8443 0.507614,21.3198c0,43.9932 -6.42978,87.9019 -19.2893,131.726c-12.8596,43.824 -32.4027,85.8714 -58.6294,126.142c-26.2267,40.2707 -57.445,75.8883 -93.6548,106.853c-36.2098,30.9645 -79.8646,55.6684 -130.964,74.1117c-51.0998,18.4433 -105.753,27.665 -163.959,27.665c-91.709,0 -175.635,-24.5347 -251.777,-73.6041c11.8443,1.35364 25.0423,2.03046 39.5939,2.03046c76.1421,0 143.993,-23.3503 203.553,-70.0508c-35.533,-0.676819 -67.3435,-11.5905 -95.4315,-32.7411c-28.088,-21.1506 -47.3773,-48.1387 -57.868,-80.9645c11.1675,1.69205 21.489,2.53807 30.9645,2.53807c14.5516,0 28.934,-1.86125 43.1472,-5.58376c-37.9019,-7.78342 -69.2893,-26.6497 -94.1624,-56.599c-24.8731,-29.9492 -37.3096,-64.7208 -37.3096,-104.315l0,-2.03046c23.0118,12.8596 47.7157,19.797 74.1117,20.8122c-22.335,-14.89 -40.1015,-34.3486 -53.2995,-58.3756c-13.198,-24.0271 -19.797,-50.0846 -19.797,-78.1726c0,-29.78 7.44501,-57.3604 22.335,-82.7411c40.9475,50.423 90.7783,90.7783 149.492,121.066c58.714,30.2876 121.574,47.1235 188.579,50.5076c-2.70728,-12.8596 -4.06091,-25.3807 -4.06091,-37.5635c0,-45.3469 15.9898,-84.0102 47.9695,-115.99c31.9797,-31.9797 70.643,-47.9695 115.99,-47.9695c47.3773,0 87.3096,17.2589 119.797,51.7766c36.8866,-7.1066 71.5736,-20.3046 104.061,-39.5939c-12.5212,38.9171 -36.5482,69.0355 -72.0812,90.3553c31.4721,-3.38409 62.9442,-11.8443 94.4162,-25.3807Z" style="fill:#fff;fill-rule:nonzero;"/></g></svg>