<?xml version="1.0" standalone="no"?><!DOCTYPE svg PUBLIC "-//W3C//DTD SVG 1.1//EN" "http://www.w3.org/Graphics/SVG/1.1/DTD/svg11.dtd"><svg width="100%" height="100%" viewBox="0 0 460 461" version="1.1" xmlns="http://www.w3.org/2000/svg" xmlns:xlink="http://www.w3.org/1999/xlink" xml:space="preserve" style="fill-rule:evenodd;clip-rule:evenodd;stroke-linejoin:round;stroke-miterlimit:1.41421;"><path id="i" d="M460.583,24.26c0,-13.3984 -10.8616,-24.26 -24.26,-24.26l-411.565,0c-13.3984,0 -24.26,10.8616 -24.26,24.26l0,406.422c0,13.3984 10.8616,24.26 24.26,24.26l411.565,0c13.3984,0 24.26,-10.8616 24.26,-24.26l0,-406.422Z" style="fill:#96cde5;"/><path id="i1" d="M460.085,30.7203c0,-13.3984 -10.8616,-24.26 -24.26,-24.26l-411.565,0c-13.3984,0 -24.26,10.8616 -24.26,24.26l0,406.422c0,13.3984 10.8616,24.26 24.26,24.26l411.565,0c13.3984,0 24.26,-10.8616 24.26,-24.26l0,-406.422Z" style="fill:#000;fill-opacity:0.197608;"/><path id="i2" d="M460.583,29.1117c0,-13.2475 -10.7392,-23.9867 -23.9867,-23.9867l-412.111,0c-13.2475,0 -23.9867,10.7392 -23.9867,23.9867l0,401.844c0,13.2475 10.7392,23.9867 23.9867,23.9867l412.111,0c13.2475,0 23.9867,-10.7392 23.9867,-23.9867l0,-401.844Z" style="fill:#33b5e5;"/><path d="M321.33,129.978l139.362,139.664l-0.615894,-144.778l-65.6388,-66.0182l4.60968,41.8888l-25.5168,30.6376l-37.2648,-0.0142862l-14.9354,-1.37941Z" style="fill:#000;fill-opacity:0.1;"/><path d="M355.783,41.2488c14.141,0 26.2317,5.02024 36.2722,15.0607c10.0405,10.0405 15.0607,22.1312 15.0607,36.2722c0,14.141 -5.02024,26.2317 -15.0607,36.2722c-10.0405,10.0405 -22.1312,15.0607 -36.2722,15.0607c-14.141,0 -26.2317,-5.02024 -36.2722,-15.0607c-10.0405,-10.0405 -15.0607,-22.1312 -15.0607,-36.2722c0,-14.141 5.02024,-26.2317 15.0607,-36.2722c10.0405,-10.0405 22.1312,-15.0607 36.2722,-15.0607ZM355.783,54.1251c-8.16268,0 -15.5397,2.37599 -22.1312,7.12797c-6.59146,4.75198 -11.2668,10.9219 -14.026,18.5097l72.3144,0c-2.75922,-7.58784 -7.43455,-13.7578 -14.026,-18.5097c-6.59146,-4.75198 -13.9685,-7.12797 -22.1312,-7.12797ZM355.725,98.9623c1.83948,0 3.39154,-0.63232 4.65618,-1.89696c1.26464,-1.26464 1.89696,-2.77838 1.89696,-4.54121c0,-1.83948 -0.651481,-3.37237 -1.95444,-4.59869c-1.30296,-1.22632 -2.8167,-1.83948 -4.54121,-1.83948c-1.72451,0 -3.21908,0.613159 -4.48373,1.83948c-1.26464,1.22632 -1.89696,2.75922 -1.89696,4.59869c0,1.83948 0.63232,3.37237 1.89696,4.59869c1.26464,1.22632 2.74005,1.83948 4.42624,1.83948ZM317.326,92.5242c0,9.50396 3.02747,17.8008 9.08242,24.8904c6.05494,7.08965 13.6811,11.4009 22.8785,12.9338c-0.15329,-10.5003 -3.33405,-19.4295 -9.54229,-26.7874c-6.20823,-7.35791 -13.6811,-11.0369 -22.4186,-11.0369ZM362.278,130.348c9.19738,-1.5329 16.8235,-5.84417 22.8785,-12.9338c6.05494,-7.08965 9.08242,-15.3865 9.08242,-24.8904c-8.73752,0 -16.2104,3.67895 -22.4186,11.0369c-6.20823,7.35791 -9.389,16.287 -9.54229,26.7874Z" style="fill:#fff;fill-rule:nonzero;"/><path d="M99.4164,401.03l52.1177,53.7003l286.18,-0.0142862c0,0 12.6544,-2.65406 16.7799,-7.29232c4.12554,-4.63826 5.84147,-8.73681 5.75099,-19.6245c-0.0904793,-10.8877 0.420649,-98.4336 0.420649,-98.4336l-177.244,-177.363l-20.5769,157.059l-1.50481,36.5568l-145.207,8.73681l-16.7165,46.6746Z" style="fill:#000;fill-opacity:0.1;"/><path d="M130.352,131.458l0,15.8934l-31.7867,0c-7.94668,0 -15.8934,7.94668 -15.8934,15.8934l0,206.613l15.8934,0l0,31.787l31.7867,0l0,-31.787l111.254,0l0,31.787l31.7867,0l0,-31.787l15.8934,0l0,-206.613c0,-7.94668 -7.94668,-15.8934 -15.8934,-15.8934l-31.7867,0l0,-15.8934l-111.254,0ZM114.458,179.138l143.04,0l0,79.4671l-143.04,0l0,-31.787l0,-47.6801ZM130.352,306.285c8.80492,0 15.8934,7.08844 15.8934,15.8934c0,8.80492 -7.08844,15.893 -15.8934,15.893c-8.80492,0 -15.8934,-7.08844 -15.8934,-15.893c0,-8.80524 7.08844,-15.8934 15.8934,-15.8934ZM241.605,306.285c8.80492,0 15.8934,7.08844 15.8934,15.8934c0,8.80492 -7.08844,15.893 -15.8934,15.893c-8.80492,0 -15.8934,-7.08844 -15.8934,-15.893c0,-8.80524 7.08844,-15.8934 15.8934,-15.8934Z" style="fill:#fff;fill-rule:nonzero;"/></svg>