<?xml version="1.0" standalone="no"?><!DOCTYPE svg PUBLIC "-//W3C//DTD SVG 1.1//EN" "http://www.w3.org/Graphics/SVG/1.1/DTD/svg11.dtd"><svg width="100%" height="100%" viewBox="0 0 460 461" version="1.1" xmlns="http://www.w3.org/2000/svg" xmlns:xlink="http://www.w3.org/1999/xlink" xml:space="preserve" style="fill-rule:evenodd;clip-rule:evenodd;stroke-linejoin:round;stroke-miterlimit:1.41421;"><g id="Falcon"><path id="i" d="M460.583,24.26c0,-13.3984 -10.8616,-24.26 -24.26,-24.26l-411.565,0c-13.3984,0 -24.26,10.8616 -24.26,24.26l0,406.422c0,13.3984 10.8616,24.26 24.26,24.26l411.565,0c13.3984,0 24.26,-10.8616 24.26,-24.26l0,-406.422Z" style="fill:#db8a8a;"/><path id="i1" d="M460.085,30.7203c0,-13.3984 -10.8616,-24.26 -24.26,-24.26l-411.565,0c-13.3984,0 -24.26,10.8616 -24.26,24.26l0,406.422c0,13.3984 10.8616,24.26 24.26,24.26l411.565,0c13.3984,0 24.26,-10.8616 24.26,-24.26l0,-406.422Z" style="fill:#000;fill-opacity:0.197608;"/><path id="i2" d="M460.583,29.1117c0,-13.2475 -10.7392,-23.9867 -23.9867,-23.9867l-412.111,0c-13.2475,0 -23.9867,10.7392 -23.9867,23.9867l0,401.844c0,13.2475 10.7392,23.9867 23.9867,23.9867l412.111,0c13.2475,0 23.9867,-10.7392 23.9867,-23.9867l0,-401.844Z" style="fill:#ee2b29;"/><g id="Layer 1"><path d="M79.6686,88.3958c0,-9.38584 7.61065,-16.9965 16.9965,-16.9965c9.38584,0 16.9965,7.61065 16.9965,16.9965c0,9.38584 -7.61065,16.9965 -16.9965,16.9965c-9.38584,0 -16.9965,-7.61065 -16.9965,-16.9965" style="fill:#fff;fill-rule:nonzero;"/><path d="M102.331,77.5371c0,0 18.885,-33.9929 38.242,-39.6584c0,0 6.60973,-0.944248 0,12.7474c-6.60973,13.6916 -28.3274,31.6323 -35.8814,33.0487l-2.36062,-6.13761l1.85948e-05,-5.57843e-05Z" style="fill:#fff;fill-rule:nonzero;"/><path d="M80.3636,95.9498c0,0 -31.8552,21.6874 -32.3274,39.1561c0,0 2.11134,11.55 16.1655,-2.61368c14.0504,-14.1637 23.4928,-28.9885 23.4928,-36.5424l-7.33115,0l0.000185948,2.84217e-14Z" style="fill:#fff;fill-rule:nonzero;"/><path d="M288.708,72.5992c9.38584,0 16.9965,7.61065 16.9965,16.9965c0,9.38584 -7.61065,16.9965 -16.9965,16.9965c-9.38584,0 -16.9965,-7.61065 -16.9965,-16.9965c0,-9.38584 7.61065,-16.9965 16.9965,-16.9965" style="fill:#fff;fill-rule:nonzero;"/><path d="M299.568,95.2612c0,0 33.9929,18.885 39.6584,38.242c0,0 0.944248,6.60973 -12.7474,0c-13.6916,-6.60973 -31.6323,-28.3274 -33.0487,-35.8814l6.13761,-2.36062l5.57843e-05,1.85948e-05Z" style="fill:#fff;fill-rule:nonzero;"/><path d="M280.794,73.2943c0,0 -21.5061,-31.8552 -38.9748,-32.3274c0,0 -11.6407,2.11134 2.52303,16.1617c14.1637,14.0542 28.8977,23.4967 36.4517,23.4967l0,-7.33115l9.29738e-05,5.57843e-05Z" style="fill:#fff;fill-rule:nonzero;"/><path d="M272.174,280.902c0,-9.38584 7.61065,-16.9965 16.9965,-16.9965c9.38584,0 16.9965,7.61065 16.9965,16.9965c0,9.38584 -7.61065,16.9965 -16.9965,16.9965c-9.38584,0 -16.9965,-7.61065 -16.9965,-16.9965" style="fill:#fff;fill-rule:nonzero;"/><path d="M294.837,270.043c0,0 18.885,-33.9929 38.242,-39.6584c0,0 6.60973,-0.944248 0,12.7474c-6.60973,13.6916 -28.3274,31.6323 -35.8814,33.0487l-2.36062,-6.13761l1.85948e-05,-5.57843e-05Z" style="fill:#fff;fill-rule:nonzero;"/><path d="M272.869,288.576c0,0 -31.8552,21.627 -32.3274,39.0957c0,0 2.11134,11.5803 16.1655,-2.58346c14.0504,-14.1637 23.4928,-28.9582 23.4928,-36.5121l-7.33115,0l0.000185948,-9.29738e-05Z" style="fill:#fff;fill-rule:nonzero;"/><path d="M95.3042,297.355c-9.38584,0 -16.9965,-7.61065 -16.9965,-16.9965c0,-9.38584 7.61065,-16.9965 16.9965,-16.9965c9.38584,0 16.9965,7.61065 16.9965,16.9965c0,9.38584 -7.61065,16.9965 -16.9965,16.9965" style="fill:#fff;fill-rule:nonzero;"/><path d="M84.4454,274.693c0,0 -33.9929,-18.885 -39.6584,-38.242c0,0 -0.944248,-6.60973 12.7474,0c13.6916,6.60973 31.6323,28.3274 33.0487,35.8814l-6.13761,2.36062l-5.57843e-05,-1.85948e-05Z" style="fill:#fff;fill-rule:nonzero;"/><path d="M103.275,296.659c0,0 21.476,31.8552 38.9445,32.3274c0,0 11.6558,-2.11134 -2.50793,-16.1617c-14.1637,-14.0542 -28.8827,-23.4967 -36.4366,-23.4967l0,7.33115l5.57843e-05,-5.57843e-05Z" style="fill:#fff;fill-rule:nonzero;"/><path d="M193.923,188.434l0,14.4999c0,-0.0982019 1.5108,-0.313491 2.49281,-0.642088c0.982019,-0.328599 1.69209,-0.793169 2.47392,-1.39749c0.778061,-0.604319 1.34083,-1.34461 1.84317,-2.22843c0.498563,-0.88004 0.713851,-1.92627 0.713851,-3.13113c0,-1.96403 -0.302159,-3.43706 -1.53724,-4.42286c-1.22752,-0.978241 -2.20954,-1.87339 -5.98653,-2.67789" style="fill:#fff;fill-rule:nonzero;"/><path d="M184.107,165.663c-0.657197,0.528779 -1.17464,1.1822 -1.54857,1.96403c-0.381477,0.781837 -0.566549,1.69965 -0.566549,2.75721c0,1.66188 1.20864,2.94606 2.26997,3.85254c1.05378,0.902701 2.10757,1.63544 5.88455,2.18687l0,-12.3092c-3.77699,0 -2.3644,0.124641 -3.1689,0.377699c-0.808277,0.253058 -2.22087,0.642088 -2.87051,1.17087" style="fill:#fff;fill-rule:nonzero;"/><path d="M240.189,212.092c0,0 -20.7735,-22.662 -0.944248,-55.7107l46.2682,-57.5991l-8.49823,-10.3867c0,0 -33.0487,33.0487 -50.0452,43.4355c0,0 -22.662,25.4947 -64.2088,5.66549l-53.8222,-44.3797l-12.2752,5.66549c0,0 45.324,50.6456 50.0452,60.2619c4.72125,9.61245 10.3867,35.1071 -4.72125,56.8248c-15.108,21.7178 -40.6026,49.101 -45.324,56.6549l10.3867,7.55399c0,0 43.4355,-43.4355 56.6549,-48.1567c13.2195,-4.72125 25.4947,-16.0522 56.6549,0c0,0 51.9337,38.7141 57.5991,48.1567l7.55399,-14.1637c0,0 -29.2717,-24.5505 -45.324,-53.8222" style="fill:#fff;fill-rule:nonzero;"/></g><g><path d="M189.588,420.615l0,-46.1075c0,-0.899893 0.424067,-1.61034 1.2722,-2.13132c0.848133,-0.520993 1.84594,-0.781487 2.99341,-0.781487l26.1175,0c0.997804,0 1.74616,0.390743 2.24506,1.17223c0.498902,0.781487 0.748353,1.7169 0.748353,2.80625c0,1.13671 -0.261924,2.10764 -0.785771,2.91281c-0.523847,0.805168 -1.25973,1.20775 -2.20764,1.20775l-20.6545,0l0,14.2088l11.4498,0c0.947914,0 1.68379,0.355221 2.20764,1.06566c0.523847,0.710443 0.785771,1.58665 0.785771,2.62864c0,0.947256 -0.261924,1.7761 -0.785771,2.48654c-0.523847,0.710443 -1.25973,1.06566 -2.20764,1.06566l-11.4498,0l0,19.4661c0,0.899893 -0.486429,1.61034 -1.45929,2.13132c-0.972859,0.520993 -2.10786,0.781487 -3.40501,0.781487c-1.34704,0 -2.49451,-0.260495 -3.44242,-0.781487c-0.947914,-0.520993 -1.42187,-1.23143 -1.42187,-2.13132l-1.74319e-05,-0.000183035Z" style="fill:#000;fill-rule:nonzero;"/><path d="M217.501,419.692c0,-0.0947256 0.0498902,-0.331539 0.149671,-0.710443l14.4432,-44.6868c0.299341,-0.994618 1.03522,-1.76426 2.20764,-2.30893c1.17242,-0.544674 2.50698,-0.817009 4.00369,-0.817009c1.49671,0 2.84374,0.272336 4.04111,0.817009c1.19736,0.544674 1.94572,1.31432 2.24506,2.30893l14.4432,44.6868c0.0997804,0.378902 0.149671,0.615718 0.149671,0.710443c0,1.04198 -0.673518,1.94187 -2.02055,2.69968c-1.34704,0.757805 -2.71902,1.13671 -4.11594,1.13671c-1.84594,0 -2.94352,-0.615718 -3.29275,-1.84715l-2.84374,-9.44889l-17.1373,0l-2.84374,9.44889c-0.349231,1.23143 -1.44682,1.84715 -3.29275,1.84715c-1.44682,0 -2.83127,-0.367062 -4.15336,-1.10118c-1.32209,-0.734124 -1.98314,-1.64586 -1.98314,-2.7352l-2.61479e-05,0ZM231.795,404.985l13.0214,0l-6.51065,-21.8106l-6.51065,21.8106l-4.35798e-05,0Z" style="fill:#000;fill-rule:nonzero;"/><path d="M264.348,420.615l0,-46.1785c0,-0.947256 0.473957,-1.6577 1.42187,-2.13132c0.947914,-0.473626 2.09539,-0.710443 3.44242,-0.710443c1.34704,0 2.49451,0.236814 3.44242,0.710443c0.947914,0.473626 1.42187,1.18407 1.42187,2.13132l0,40.9925l18.2598,0c0.898024,0 1.60896,0.402584 2.13281,1.20775c0.523847,0.805168 0.785771,1.75242 0.785771,2.84177c0,1.08934 -0.261924,2.0366 -0.785771,2.84177c-0.523847,0.805168 -1.23478,1.20775 -2.13281,1.20775l-23.7228,0c-1.14747,0 -2.14528,-0.260495 -2.99341,-0.781487c-0.848133,-0.520993 -1.2722,-1.23143 -1.2722,-2.13132l1.74319e-05,-0.000178677Z" style="fill:#000;fill-rule:nonzero;"/><path d="M299.147,407.685l0,-19.8213c0,-5.58881 1.59649,-9.69752 4.78947,-12.3262c3.19297,-2.62864 7.3588,-3.94295 12.4975,-3.94295c5.23847,0 9.51657,1.23143 12.8343,3.6943c3.3177,2.46286 4.97656,5.73088 4.97656,9.80411c0,1.75242 -0.374176,2.94833 -1.12253,3.58773c-0.748353,0.639399 -1.99561,0.959096 -3.74176,0.959096c-3.19297,0 -4.8144,-0.970937 -4.86429,-2.91281c-0.0498902,-0.615718 -0.112253,-1.14855 -0.187088,-1.5985c-0.0748353,-0.449944 -0.274396,-1.04198 -0.598682,-1.7761c-0.324286,-0.734124 -0.73588,-1.34984 -1.23478,-1.84715c-0.498902,-0.497307 -1.24725,-0.923574 -2.24506,-1.27879c-0.997804,-0.355221 -2.17022,-0.532833 -3.51726,-0.532833c-5.23847,0 -7.85771,2.72336 -7.85771,8.17009l0,19.8213c0,5.44674 2.66913,8.17009 8.00736,8.17009c1.59649,0 2.93105,-0.236814 4.00369,-0.710443c1.07264,-0.473626 1.84594,-1.14855 2.31989,-2.02476c0.473957,-0.876212 0.798243,-1.6577 0.972859,-2.34446c0.174616,-0.686762 0.286869,-1.52745 0.336759,-2.52207c0.149671,-1.94187 1.74616,-2.91281 4.78947,-2.91281c1.74616,0 3.00588,0.319699 3.77918,0.959096c0.773298,0.639399 1.15995,1.83531 1.15995,3.58773c0,4.26265 -1.65885,7.67275 -4.97656,10.2304c-3.3177,2.55759 -7.62072,3.83639 -12.9091,3.83639c-5.13867,0 -9.29205,-1.31432 -12.4601,-3.94295c-3.16803,-2.62864 -4.75203,-6.73736 -4.75203,-12.3262l-3.48639e-05,-3.05059e-05Z" style="fill:#000;fill-rule:nonzero;"/><path d="M340.231,407.685l0,-19.8213c0,-5.63618 1.58401,-9.75674 4.75203,-12.3617c3.16803,-2.60495 7.42117,-3.90743 12.7594,-3.90743c5.33827,0 9.60386,1.30247 12.7968,3.90743c3.19297,2.60495 4.78947,6.7255 4.78947,12.3617l0,19.8213c0,5.63618 -1.59649,9.75674 -4.78947,12.3617c-3.19297,2.60495 -7.4586,3.90743 -12.7968,3.90743c-5.33827,0 -9.5914,-1.30247 -12.7594,-3.90743c-3.16803,-2.60495 -4.75203,-6.7255 -4.75203,-12.3617l-5.68434e-14,0ZM349.96,407.685c0,5.44674 2.59429,8.17009 7.78288,8.17009c5.23847,0 7.85771,-2.72336 7.85771,-8.17009l0,-19.8213c0,-5.44674 -2.61924,-8.17009 -7.85771,-8.17009c-5.18857,0 -7.78288,2.72336 -7.78288,8.17009l0,19.8213Z" style="fill:#000;fill-rule:nonzero;"/><path d="M383.636,420.615l0,-46.1075c0,-0.947256 0.473957,-1.66954 1.42187,-2.16685c0.947914,-0.497307 2.09539,-0.745965 3.44242,-0.745965c1.79605,0 3.16803,0.307858 4.11594,0.923574c0.947914,0.615718 1.99561,1.94187 3.14308,3.97847l14.4432,26.4995l0,-28.5597c0,-0.947256 0.473957,-1.6577 1.42187,-2.13132c0.947914,-0.473626 2.09539,-0.710443 3.44242,-0.710443c1.34704,0 2.49451,0.236814 3.44242,0.710443c0.947914,0.473626 1.42187,1.18407 1.42187,2.13132l0,46.1785c0,0.899893 -0.486429,1.61034 -1.45929,2.13132c-0.972859,0.520993 -2.10786,0.781487 -3.40501,0.781487c-2.64418,0 -4.51505,-0.970937 -5.61265,-2.91281l-16.0896,-28.5597l0,28.5597c0,0.899893 -0.486429,1.61034 -1.45929,2.13132c-0.972859,0.520993 -2.10786,0.781487 -3.40501,0.781487c-1.34704,0 -2.49451,-0.260495 -3.44242,-0.781487c-0.947914,-0.520993 -1.42187,-1.23143 -1.42187,-2.13132l-1.74319e-05,8.71597e-06Z" style="fill:#000;fill-rule:nonzero;"/></g></g></svg>