<?xml version="1.0" standalone="no"?><!DOCTYPE svg PUBLIC "-//W3C//DTD SVG 1.1//EN" "http://www.w3.org/Graphics/SVG/1.1/DTD/svg11.dtd"><svg width="100%" height="100%" viewBox="0 0 800 226" version="1.1" xmlns="http://www.w3.org/2000/svg" xmlns:xlink="http://www.w3.org/1999/xlink" xml:space="preserve" style="fill-rule:evenodd;clip-rule:evenodd;stroke-linecap:round;stroke-linejoin:round;stroke-miterlimit:1.41421;"><g id="Falcon"><path d="M225.892,33.929c0,-18.2602 -14.8028,-33.063 -33.063,-33.063l-158.9,0c-18.2602,0 -33.063,14.8028 -33.063,33.063l0,158.9c0,18.2602 14.8028,33.063 33.063,33.063l158.9,0c18.2602,0 33.063,-14.8028 33.063,-33.063l0,-158.9Z" style="fill:#ee2b29;stroke-width:1px;stroke:#ee2b29;"/><g><path d="M272.312,165.87l0,-105.8c0,-2.06493 0.97308,-3.69514 2.91924,-4.89062c1.94616,-1.19549 4.23576,-1.79323 6.8688,-1.79323l59.9303,0c2.2896,0 4.0068,0.896614 5.1516,2.68984c1.1448,1.79323 1.7172,3.93967 1.7172,6.43932c0,2.60833 -0.60102,4.83628 -1.80306,6.68385c-1.20204,1.84757 -2.89062,2.77135 -5.06574,2.77135l-47.3947,0l0,32.6041l26.2732,0c2.17512,0 3.8637,0.815103 5.06574,2.44531c1.20204,1.63021 1.80306,3.6408 1.80306,6.03177c0,2.17361 -0.60102,4.07552 -1.80306,5.70572c-1.20204,1.63021 -2.89062,2.44531 -5.06574,2.44531l-26.2732,0l0,44.6677c0,2.06493 -1.11618,3.69514 -3.34854,4.89062c-2.23236,1.19549 -4.83678,1.79323 -7.81326,1.79323c-3.09096,0 -5.724,-0.597743 -7.89912,-1.79323c-2.17512,-1.19549 -3.26268,-2.82569 -3.26268,-4.89062Z" style="fill:#000;fill-rule:nonzero;"/><path d="M336.363,163.751c0,-0.217361 0.11448,-0.760763 0.34344,-1.63021l33.142,-102.54c0.68688,-2.28229 2.37546,-4.04835 5.06574,-5.29817c2.69028,-1.24983 5.75262,-1.87474 9.18702,-1.87474c3.4344,0 6.52536,0.624913 9.27288,1.87474c2.74752,1.24983 4.46472,3.01588 5.1516,5.29817l33.142,102.54c0.22896,0.869444 0.34344,1.41285 0.34344,1.63021c0,2.39097 -1.54548,4.4559 -4.63644,6.19479c-3.09096,1.73889 -6.23916,2.60833 -9.4446,2.60833c-4.23576,0 -6.75432,-1.41285 -7.55568,-4.23854l-6.52536,-21.6818l-39.3239,0l-6.52536,21.6818c-0.80136,2.82569 -3.31992,4.23854 -7.55568,4.23854c-3.31992,0 -6.49674,-0.842274 -9.53046,-2.52682c-3.03372,-1.68455 -4.55058,-3.77665 -4.55058,-6.2763ZM369.162,130.005l29.8793,0l-14.9396,-50.0474l-14.9396,50.0474Z" style="fill:#000;fill-rule:nonzero;"/><path d="M443.86,165.87l0,-105.963c0,-2.17361 1.08756,-3.80382 3.26268,-4.89062c2.17512,-1.0868 4.80816,-1.63021 7.89912,-1.63021c3.09096,0 5.724,0.543402 7.89912,1.63021c2.17512,1.0868 3.26268,2.71701 3.26268,4.89062l0,94.0629l41.8997,0c2.06064,0 3.69198,0.923784 4.89402,2.77135c1.20204,1.84757 1.80306,4.02118 1.80306,6.52083c0,2.49965 -0.60102,4.67326 -1.80306,6.52083c-1.20204,1.84757 -2.83338,2.77135 -4.89402,2.77135l-54.4353,0c-2.63304,0 -4.92264,-0.597743 -6.8688,-1.79323c-1.94616,-1.19549 -2.91924,-2.82569 -2.91924,-4.89062Z" style="fill:#000;fill-rule:nonzero;"/><path d="M523.71,136.2l0,-45.4828c0,-12.8243 3.66336,-22.2523 10.9901,-28.2841c7.32672,-6.03177 16.8858,-9.04765 28.6773,-9.04765c12.0204,0 21.8371,2.82569 29.45,8.47708c7.61292,5.65138 11.4194,13.1503 11.4194,22.4969c0,4.02118 -0.8586,6.76536 -2.5758,8.23254c-1.7172,1.46719 -4.5792,2.20078 -8.586,2.20078c-7.32672,0 -11.0473,-2.22795 -11.1618,-6.68385c-0.11448,-1.41285 -0.25758,-2.6355 -0.4293,-3.66797c-0.17172,-1.03246 -0.62964,-2.39097 -1.37376,-4.07552c-0.74412,-1.68455 -1.68858,-3.09739 -2.83338,-4.23854c-1.1448,-1.14114 -2.862,-2.11927 -5.1516,-2.93437c-2.2896,-0.815103 -4.97988,-1.22266 -8.07084,-1.22266c-12.0204,0 -18.0306,6.24913 -18.0306,18.7474l0,45.4828c0,12.4983 6.12468,18.7474 18.374,18.7474c3.66336,0 6.7257,-0.543402 9.18702,-1.63021c2.46132,-1.0868 4.23576,-2.6355 5.32332,-4.64609c1.08756,-2.01059 1.83168,-3.80382 2.23236,-5.37968c0.40068,-1.57587 0.65826,-3.50494 0.77274,-5.78723c0.34344,-4.4559 4.0068,-6.68385 10.9901,-6.68385c4.0068,0 6.89742,0.733593 8.67186,2.20078c1.77444,1.46719 2.66166,4.21137 2.66166,8.23254c0,9.78124 -3.80646,17.6062 -11.4194,23.475c-7.61292,5.86874 -17.4868,8.80312 -29.6217,8.80312c-11.7914,0 -21.3219,-3.01588 -28.5914,-9.04765c-7.26948,-6.03177 -10.9042,-15.4598 -10.9042,-28.2841Z" style="fill:#000;fill-rule:nonzero;"/><path d="M617.984,136.2l0,-45.4828c0,-12.933 3.63474,-22.3882 10.9042,-28.3656c7.26948,-5.97743 17.0289,-8.96614 29.2783,-8.96614c12.2494,0 22.0374,2.98871 29.3641,8.96614c7.32672,5.97743 10.9901,15.4326 10.9901,28.3656l0,45.4828c0,12.933 -3.66336,22.3882 -10.9901,28.3656c-7.32672,5.97743 -17.1148,8.96614 -29.3641,8.96614c-12.2494,0 -22.0088,-2.98871 -29.2783,-8.96614c-7.26948,-5.97743 -10.9042,-15.4326 -10.9042,-28.3656ZM640.308,136.2c0,12.4983 5.95296,18.7474 17.8589,18.7474c12.0204,0 18.0306,-6.24913 18.0306,-18.7474l0,-45.4828c0,-12.4983 -6.0102,-18.7474 -18.0306,-18.7474c-11.9059,0 -17.8589,6.24913 -17.8589,18.7474l0,45.4828Z" style="fill:#000;fill-rule:nonzero;"/><path d="M717.582,165.87l0,-105.8c0,-2.17361 1.08756,-3.83099 3.26268,-4.97213c2.17512,-1.14114 4.80816,-1.71172 7.89912,-1.71172c4.12128,0 7.26948,0.706423 9.4446,2.11927c2.17512,1.41285 4.5792,4.4559 7.21224,9.12916l33.142,60.8067l0,-65.5343c0,-2.17361 1.08756,-3.80382 3.26268,-4.89062c2.17512,-1.0868 4.80816,-1.63021 7.89912,-1.63021c3.09096,0 5.724,0.543402 7.89912,1.63021c2.17512,1.0868 3.26268,2.71701 3.26268,4.89062l0,105.963c0,2.06493 -1.11618,3.69514 -3.34854,4.89062c-2.23236,1.19549 -4.83678,1.79323 -7.81326,1.79323c-6.06744,0 -10.3604,-2.22795 -12.879,-6.68385l-36.9198,-65.5343l0,65.5343c0,2.06493 -1.11618,3.69514 -3.34854,4.89062c-2.23236,1.19549 -4.83678,1.79323 -7.81326,1.79323c-3.09096,0 -5.724,-0.597743 -7.89912,-1.79323c-2.17512,-1.19549 -3.26268,-2.82569 -3.26268,-4.89062Z" style="fill:#000;fill-rule:nonzero;"/></g><g id="Page 32"><g id="Layer 1"><path d="M52.9654,61.4278c0,-5.04757 4.0929,-9.14046 9.14046,-9.14046c5.04757,0 9.14046,4.0929 9.14046,9.14046c0,5.04757 -4.0929,9.14046 -9.14046,9.14046c-5.04757,0 -9.14046,-4.0929 -9.14046,-9.14046" style="fill:#fff;fill-rule:nonzero;"/><path d="M65.1527,55.5881c0,0 10.1561,-18.2809 20.566,-21.3277c0,0 3.55462,-0.507803 0,6.85535c-3.55462,7.36315 -15.2341,17.0114 -19.2965,17.7731l-1.26951,-3.30072Z" style="fill:#fff;fill-rule:nonzero;"/><path d="M53.3392,65.4902c0,0 -17.1313,11.6632 -17.3852,21.0576c0,0 1.13545,6.21145 8.69359,-1.4056c7.55611,-7.61705 12.6341,-15.5896 12.6341,-19.652l-3.94259,0Z" style="fill:#fff;fill-rule:nonzero;"/><path d="M165.384,52.9326c5.04757,0 9.14046,4.0929 9.14046,9.14046c0,5.04757 -4.0929,9.14046 -9.14046,9.14046c-5.04757,0 -9.14046,-4.0929 -9.14046,-9.14046c0,-5.04757 4.0929,-9.14046 9.14046,-9.14046" style="fill:#fff;fill-rule:nonzero;"/><path d="M171.224,65.1199c0,0 18.2809,10.1561 21.3277,20.566c0,0 0.507803,3.55462 -6.85535,0c-7.36315,-3.55462 -17.0114,-15.2341 -17.7731,-19.2965l3.30072,-1.26951Z" style="fill:#fff;fill-rule:nonzero;"/><path d="M161.128,53.3064c0,0 -11.5657,-17.1313 -20.9601,-17.3852c0,0 -6.2602,1.13545 1.35685,8.69156c7.61705,7.55815 15.5408,12.6362 19.6032,12.6362l0,-3.94259Z" style="fill:#fff;fill-rule:nonzero;"/><path d="M156.492,164.955c0,-5.04757 4.0929,-9.14046 9.14046,-9.14046c5.04757,0 9.14046,4.0929 9.14046,9.14046c0,5.04757 -4.0929,9.14046 -9.14046,9.14046c-5.04757,0 -9.14046,-4.0929 -9.14046,-9.14046" style="fill:#fff;fill-rule:nonzero;"/><path d="M168.68,159.115c0,0 10.1561,-18.2809 20.566,-21.3277c0,0 3.55462,-0.507803 0,6.85535c-3.55462,7.36315 -15.2341,17.0114 -19.2965,17.7731l-1.26951,-3.30072Z" style="fill:#fff;fill-rule:nonzero;"/><path d="M156.866,169.082c0,0 -17.1313,11.6307 -17.3852,21.0251c0,0 1.13545,6.2277 8.69359,-1.38935c7.55611,-7.61705 12.6341,-15.5733 12.6341,-19.6357l-3.94259,0Z" style="fill:#fff;fill-rule:nonzero;"/><path d="M61.374,173.803c-5.04757,0 -9.14046,-4.0929 -9.14046,-9.14046c0,-5.04757 4.0929,-9.14046 9.14046,-9.14046c5.04757,0 9.14046,4.0929 9.14046,9.14046c0,5.04757 -4.0929,9.14046 -9.14046,9.14046" style="fill:#fff;fill-rule:nonzero;"/><path d="M55.5343,161.616c0,0 -18.2809,-10.1561 -21.3277,-20.566c0,0 -0.507803,-3.55462 6.85535,0c7.36315,3.55462 17.0114,15.2341 17.7731,19.2965l-3.30072,1.26951Z" style="fill:#fff;fill-rule:nonzero;"/><path d="M65.6605,173.429c0,0 11.5495,17.1313 20.9438,17.3852c0,0 6.26833,-1.13545 -1.34873,-8.69156c-7.61705,-7.55815 -15.5327,-12.6362 -19.5951,-12.6362l0,3.94259Z" style="fill:#fff;fill-rule:nonzero;"/><path d="M114.41,115.227l0,7.79783c0,-0.0528116 0.812485,-0.168591 1.3406,-0.345306c0.528116,-0.176716 0.909984,-0.426555 1.33044,-0.751549c0.41843,-0.324994 0.721081,-0.723112 0.991232,-1.19842c0.26812,-0.473273 0.383899,-1.03592 0.383899,-1.68388c0,-1.05623 -0.162497,-1.8484 -0.826704,-2.37855c-0.660144,-0.526084 -1.18826,-1.00748 -3.21947,-1.44013" style="fill:#fff;fill-rule:nonzero;"/><path d="M109.131,102.981c-0.353431,0.28437 -0.631707,0.63577 -0.832798,1.05623c-0.205153,0.420461 -0.304682,0.914046 -0.304682,1.48279c0,0.893734 0.649988,1.58435 1.22076,2.07184c0.566709,0.48546 1.13342,0.879516 3.16463,1.17607l0,-6.61973c-2.03121,0 -1.27154,0.0670301 -1.70419,0.203121c-0.43468,0.136091 -1.19435,0.345306 -1.54372,0.629676" style="fill:#fff;fill-rule:nonzero;"/><path d="M139.291,127.95c0,0 -11.1717,-12.1873 -0.507803,-29.9604l24.8824,-30.976l-4.57023,-5.58584c0,0 -17.7731,17.7731 -26.9136,23.359c0,0 -12.1873,13.7107 -34.5306,3.04682l-28.9448,-23.8668l-6.60144,3.04682c0,0 24.3746,27.2365 26.9136,32.408c2.53902,5.16944 5.58584,18.8801 -2.53902,30.5596c-8.12485,11.6795 -21.8355,26.4058 -24.3746,30.4682l5.58584,4.06243c0,0 23.359,-23.359 30.4682,-25.898c7.10925,-2.53902 13.7107,-8.63266 30.4682,0c0,0 27.9292,20.8199 30.976,25.898l4.06243,-7.61705c0,0 -15.7419,-13.2029 -24.3746,-28.9448" style="fill:#fff;fill-rule:nonzero;"/></g></g></g></svg>