<?xml version="1.0" standalone="no"?><!DOCTYPE svg PUBLIC "-//W3C//DTD SVG 1.1//EN" "http://www.w3.org/Graphics/SVG/1.1/DTD/svg11.dtd"><svg width="100%" height="100%" viewBox="0 0 693 800" version="1.1" xmlns="http://www.w3.org/2000/svg" xmlns:xlink="http://www.w3.org/1999/xlink" xml:space="preserve" style="fill-rule:evenodd;clip-rule:evenodd;stroke-linejoin:round;stroke-miterlimit:1.41421;"><g id="SSIL"><path d="M556.762,258.492l-207.375,-121.891l-183.258,101.662l42.1983,25.4223l139.51,-80.4813l187.989,109.438l-1.74013,218.822l-107.018,60.796l1.03318,45.3251l145.193,-83.1187l0.407807,-240.546l34.0686,-21.3711l-1.44105,279.428l-207.837,117.323l-1.27794,-123.332l105.333,-55.0318l1.25074,-181.328l-156.041,-91.5474l-139.32,79.1218l-104.191,-60.0347l244.353,-138.803l240.166,140.135l-32.0022,20.0116ZM45.4882,571.036l212.976,125.562l-0.679699,-129.395l-99.5412,-58.3489l0.598175,-160.12l-38.9627,-21.9964l-1.16915,204.575l100.167,58.7296l0.788512,37.2498l-135.078,-78.9586l1.93047,-275.947l103.728,59.7356l-1.0876,156.232l99.3508,58.3761l0.271892,221.405l-288.781,-171.295l0.135946,-399.334l349.142,-197.505l344.384,201.393l-2.25672,399.796l-348.652,198.81l-16.9391,-9.40762l-0.761285,-268.987l-96.3872,-55.6843l0.951622,-135.486l117.813,-66.9409l116.861,68.5722l-0.951653,135.105l-103.837,55.9834l0.190368,214.934l285.817,-163.111l2.22953,-347.538l-299.385,-174.231l-302.403,170.615l-0.462229,347.211Z" style="fill:#d31145;fill-rule:nonzero;"/></g></svg>