<?xml version="1.0" standalone="no"?><!DOCTYPE svg PUBLIC "-//W3C//DTD SVG 1.1//EN" "http://www.w3.org/Graphics/SVG/1.1/DTD/svg11.dtd"><svg width="100%" height="100%" viewBox="0 0 638 633" version="1.1" xmlns="http://www.w3.org/2000/svg" xmlns:xlink="http://www.w3.org/1999/xlink" xml:space="preserve" style="fill-rule:evenodd;clip-rule:evenodd;stroke-linejoin:round;stroke-miterlimit:1.41421;"><g id="Layer1"><path d="M638.287,19.0925c0,-10.5445 -8.54799,-19.0925 -19.0925,-19.0925l-600.102,0c-10.5445,0 -19.0925,8.54799 -19.0925,19.0925l0,595.128c0,10.5445 8.54799,19.0925 19.0925,19.0925l600.102,0c10.5445,0 19.0925,-8.54799 19.0925,-19.0925l0,-595.128ZM514.707,492.101l-388.685,0l0,51.125l388.685,0l0,-51.125ZM513.976,417.86l0,47.8045l-48.7289,0l0,-47.8045l48.7289,0ZM500.325,399.235l-22.0398,0l-11.7959,-95.6091l0,-59.6005l45.942,0l0,59.6005l-12.1063,95.6091ZM299.994,465.671l105.812,-43.2862l30.4556,-115.421l-36.8709,49.6878l11.2234,-125.044l-51.3019,63.6704l-14.431,-116.573l-22.4468,52.9023l-44.0795,-181.147l-12.9479,131.452l-61.8493,-43.2793l0,120.229l-34.491,-33.6563l0,84.1581l-44.7555,-21.6397l31.7317,133.059l88.0073,44.8866l-51.3778,-78.5567l15.99,-3.20077l6.38774,-44.7693l33.6563,60.8008l1.59348,-86.5724l20.8395,25.7717l8.8159,-64.243l18.4389,96.1816l25.6544,-14.431l-4.81495,38.4851l27.2548,-17.6387l-46.4939,88.1728Z" style="fill:#cf3d22;"/></g></svg>