<?xml version="1.0" standalone="no"?><!DOCTYPE svg PUBLIC "-//W3C//DTD SVG 1.1//EN" "http://www.w3.org/Graphics/SVG/1.1/DTD/svg11.dtd"><svg width="100%" height="100%" viewBox="0 0 460 461" version="1.1" xmlns="http://www.w3.org/2000/svg" xmlns:xlink="http://www.w3.org/1999/xlink" xml:space="preserve" style="fill-rule:evenodd;clip-rule:evenodd;stroke-linejoin:round;stroke-miterlimit:1.41421;"><g id="Doubtfire"><path id="i" d="M460.583,24.26c0,-13.3984 -10.8616,-24.26 -24.26,-24.26l-411.565,0c-13.3984,0 -24.26,10.8616 -24.26,24.26l0,406.422c0,13.3984 10.8616,24.26 24.26,24.26l411.565,0c13.3984,0 24.26,-10.8616 24.26,-24.26l0,-406.422Z" style="fill:#ce8476;"/><path id="i1" d="M460.085,30.7203c0,-13.3984 -10.8616,-24.26 -24.26,-24.26l-411.565,0c-13.3984,0 -24.26,10.8616 -24.26,24.26l0,406.422c0,13.3984 10.8616,24.26 24.26,24.26l411.565,0c13.3984,0 24.26,-10.8616 24.26,-24.26l0,-406.422Z" style="fill:#000;fill-opacity:0.197608;"/><path id="i2" d="M460.583,29.1117c0,-13.2475 -10.7392,-23.9867 -23.9867,-23.9867l-412.111,0c-13.2475,0 -23.9867,10.7392 -23.9867,23.9867l0,401.844c0,13.2475 10.7392,23.9867 23.9867,23.9867l412.111,0c13.2475,0 23.9867,-10.7392 23.9867,-23.9867l0,-401.844Z" style="fill:#cf3d22;"/><g><path d="M217.727,341.298l69.0014,-28.2276l19.8606,-75.2677l-24.0441,32.4022l7.31894,-81.543l-33.4548,41.5205l-9.41071,-76.0189l-14.6379,34.4984l-28.7449,-118.129l-8.44355,85.722l-40.3329,-28.2231l0,78.4031l-22.4921,-21.9478l0,54.8808l-29.1858,-14.1116l20.6928,86.7701l57.3909,29.2713l-33.5043,-51.2281l10.4274,-2.08727l4.16554,-29.1948l21.9478,39.6491l1.03914,-56.4552l13.5897,16.8061l5.74899,-41.8938l12.0243,62.7216l16.7296,-9.41071l-3.1399,25.0967l17.7733,-11.5025l-30.3194,57.4989Z" style="fill:#fff;fill-rule:nonzero;"/><path d="M357.268,310.119l0,31.1741l-31.7769,0l0,-31.1741l31.7769,0ZM348.366,297.974l-14.3725,0l-7.69231,-62.3482l0,-38.8664l29.9595,0l0,38.8664l-7.89474,62.3482Z" style="fill:#fff;fill-rule:nonzero;"/><rect x="105.267" y="359.129" width="252.155" height="31.7403" style="fill:#fff;"/></g></g></svg>