<?xml version="1.0"?>
<svg version="1.1" xmlns="http://www.w3.org/2000/svg" xmlns:xlink="http://www.w3.org/1999/xlink" width="460" height="461">
    <desc iVinci="yes" version="4.6" gridStep="20" showGrid="no" snapToGrid="no" codePlatform="0"/>
    <g id="Layer1" name="Layer 1" opacity="1">
        <g id="Shape1">
            <desc shapeID="1" type="0" basicInfo-basicType="0" basicInfo-roundedRectRadius="12" basicInfo-polygonSides="6" basicInfo-starPoints="5" bounding="rect(-230.042,-227.471,460.085,454.942)" text="" font-familyName="" font-pixelSize="20" font-bold="0" font-underline="0" font-alignment="1" strokeStyle="0" markerStart="0" markerEnd="0" shadowEnabled="0" shadowOffsetX="0" shadowOffsetY="2" shadowBlur="4" shadowOpacity="160" blurEnabled="0" blurRadius="4" transform="matrix(1,0,0,1,230.54,227.471)" pers-center="0,0" pers-size="0,0" pers-start="0,0" pers-end="0,0" locked="0" mesh="" flag=""/>
            <path id="shapePath1" d="M460.583,24.26 C460.583,10.8616 449.721,0 436.323,0 L24.758,0 C11.3596,0 0.498001,10.8616 0.498001,24.26 L0.498001,430.682 C0.498001,444.08 11.3596,454.942 24.758,454.942 L436.323,454.942 C449.721,454.942 460.583,444.08 460.583,430.682 L460.583,24.26 Z" style="stroke:none;fill-rule:evenodd;fill:#ce8476;fill-opacity:1;"/>
        </g>
        <g id="Shape2">
            <desc shapeID="2" type="0" basicInfo-basicType="0" basicInfo-roundedRectRadius="12" basicInfo-polygonSides="6" basicInfo-starPoints="5" bounding="rect(-230.042,-227.471,460.085,454.942)" text="" font-familyName="" font-pixelSize="20" font-bold="0" font-underline="0" font-alignment="1" strokeStyle="0" markerStart="0" markerEnd="0" shadowEnabled="0" shadowOffsetX="0" shadowOffsetY="2" shadowBlur="4" shadowOpacity="160" blurEnabled="0" blurRadius="4" transform="matrix(1,0,0,1,230.042,233.931)" pers-center="0,0" pers-size="0,0" pers-start="0,0" pers-end="0,0" locked="0" mesh="" flag=""/>
            <path id="shapePath2" d="M460.085,30.7203 C460.085,17.3219 449.223,6.4603 435.825,6.4603 L24.26,6.4603 C10.8616,6.4603 0,17.3219 0,30.7203 L0,437.142 C0,450.541 10.8616,461.402 24.26,461.402 L435.825,461.402 C449.223,461.402 460.085,450.541 460.085,437.142 L460.085,30.7203 Z" style="stroke:none;fill-rule:evenodd;fill:#000000;fill-opacity:0.196078;"/>
        </g>
        <g id="Shape3">
            <desc shapeID="3" type="0" basicInfo-basicType="0" basicInfo-roundedRectRadius="12" basicInfo-polygonSides="6" basicInfo-starPoints="5" bounding="rect(-230.042,-224.909,460.084,449.817)" text="" font-familyName="" font-pixelSize="20" font-bold="0" font-underline="0" font-alignment="1" strokeStyle="0" markerStart="0" markerEnd="0" shadowEnabled="0" shadowOffsetX="0" shadowOffsetY="2" shadowBlur="4" shadowOpacity="160" blurEnabled="0" blurRadius="4" transform="matrix(1,0,0,1,230.541,230.034)" pers-center="0,0" pers-size="0,0" pers-start="0,0" pers-end="0,0" locked="0" mesh="" flag=""/>
            <path id="shapePath3" d="M460.583,29.1117 C460.583,15.8642 449.844,5.125 436.596,5.125 L24.4853,5.125 C11.2378,5.125 0.498596,15.8642 0.498596,29.1117 L0.498596,430.956 C0.498596,444.203 11.2378,454.942 24.4853,454.942 L436.596,454.942 C449.844,454.942 460.583,444.203 460.583,430.956 L460.583,29.1117 Z" style="stroke:none;fill-rule:evenodd;fill:#da532c;fill-opacity:1;"/>
        </g>
        <g id="Shape4">
            <desc shapeID="4" type="0" basicInfo-basicType="0" basicInfo-roundedRectRadius="12" basicInfo-polygonSides="6" basicInfo-starPoints="5" bounding="rect(-27.3393,-18.7927,54.6786,37.5854)" text="" font-familyName="" font-pixelSize="20" font-bold="0" font-underline="0" font-alignment="1" strokeStyle="0" markerStart="0" markerEnd="0" shadowEnabled="0" shadowOffsetX="0" shadowOffsetY="2" shadowBlur="4" shadowOpacity="160" blurEnabled="0" blurRadius="4" transform="matrix(4.96821,0,0,4.96821,257.169,320.075)" pers-center="0,0" pers-size="0,0" pers-start="0,0" pers-end="0,0" locked="0" mesh="" flag=""/>
            <path id="shapePath4" d="M391.878,266.382 L353.126,227.63 C351.139,225.643 348.158,227.133 348.158,229.617 L348.158,254.955 C348.158,256.446 346.667,257.936 345.177,257.936 L309.903,257.936 C298.476,257.936 289.036,267.376 289.036,278.803 L289.036,324.51 C289.036,326.497 287.546,327.988 285.559,327.988 L232.399,327.988 C220.972,327.988 211.532,337.428 211.532,348.854 L211.532,389.594 C211.532,391.581 210.042,393.072 208.054,393.072 L131.544,393.072 C125.085,393.072 120.117,398.536 121.607,404.995 C122.601,409.964 127.073,413.441 132.537,413.441 L211.035,413.441 C222.462,413.441 231.902,404.002 231.902,392.575 L231.902,351.835 C231.902,349.848 233.392,348.358 235.38,348.358 L288.54,348.358 C299.966,348.358 309.406,338.918 309.406,327.491 L309.406,281.784 C309.406,279.796 310.896,278.306 312.884,278.306 L345.177,278.306 C346.667,278.306 348.158,279.796 348.158,281.287 L348.158,306.625 C348.158,309.109 351.139,310.599 353.126,308.612 L391.878,269.86 C393.368,269.363 393.368,267.872 391.878,266.382 Z" style="stroke:none;fill-rule:evenodd;fill:#ffffff;fill-opacity:1;"/>
        </g>
        <g id="Shape5">
            <desc shapeID="5" type="0" basicInfo-basicType="0" basicInfo-roundedRectRadius="12" basicInfo-polygonSides="6" basicInfo-starPoints="5" bounding="rect(-5.90002,-4.95868,11.8,9.91736)" text="" font-familyName="" font-pixelSize="20" font-bold="0" font-underline="0" font-alignment="1" strokeStyle="0" markerStart="0" markerEnd="0" shadowEnabled="0" shadowOffsetX="0" shadowOffsetY="2" shadowBlur="4" shadowOpacity="160" blurEnabled="0" blurRadius="4" transform="matrix(4.96821,0,0,4.96821,205.073,97.6682)" pers-center="0,0" pers-size="0,0" pers-start="0,0" pers-end="0,0" locked="0" mesh="" flag=""/>
            <path id="shapePath5" d="M234.386,92.9915 C234.386,109.18 221.262,122.304 205.073,122.304 C188.884,122.304 175.761,109.18 175.761,92.9915 C175.761,76.8028 192.792,90.5991 207.261,79.6707 C226.577,65.0829 234.386,76.8028 234.386,92.9915 Z" style="stroke:none;fill-rule:evenodd;fill:#ffffff;fill-opacity:1;"/>
        </g>
        <g id="Shape6">
            <desc shapeID="6" type="0" basicInfo-basicType="0" basicInfo-roundedRectRadius="12" basicInfo-polygonSides="6" basicInfo-starPoints="5" bounding="rect(-23.0748,-25.5433,46.1497,51.0866)" text="" font-familyName="" font-pixelSize="20" font-bold="0" font-underline="0" font-alignment="1" strokeStyle="0" markerStart="0" markerEnd="0" shadowEnabled="0" shadowOffsetX="0" shadowOffsetY="2" shadowBlur="4" shadowOpacity="160" blurEnabled="0" blurRadius="4" transform="matrix(4.96821,0,0,4.96821,199.658,252.256)" pers-center="0,0" pers-size="0,0" pers-start="0,0" pers-end="0,0" locked="0" mesh="" flag=""/>
            <path id="shapePath6" d="M309.903,130.253 C304.438,124.788 295.992,123.794 289.533,127.769 L249.29,152.113 C247.303,153.604 244.819,153.604 242.335,152.61 L230.908,147.145 C229.915,146.648 228.921,145.655 227.927,144.661 C221.965,135.221 211.035,128.266 198.615,128.266 C188.678,128.266 179.736,132.241 173.277,138.699 C172.78,139.196 172.283,139.196 172.283,139.693 L171.786,140.189 C170.296,140.686 168.805,141.183 167.315,142.177 L112.664,180.432 C110.677,181.923 109.187,183.413 108.193,185.4 L86.8298,221.668 C77.2931,240.05 108.193,252.256 114.652,237.07 L134.028,204.28 C134.028,203.783 134.525,203.286 135.021,203.286 L159.862,185.897 L161.353,184.904 C162.347,183.91 164.334,184.904 164.334,186.394 L163.837,219.681 C163.837,227.133 165.824,234.089 169.799,240.05 C169.799,240.547 170.793,241.044 171.786,242.535 L144.461,358.791 C142.971,366.243 145.952,373.695 152.41,377.173 C154.895,378.664 157.379,379.161 159.862,379.161 C167.315,379.161 173.774,374.192 175.264,366.74 L201.596,254.955 C201.596,254.955 202.093,254.955 202.093,254.458 C208.551,253.962 214.016,251.477 218.984,248 C219.978,247.503 220.972,247.006 221.965,248 C226.437,250.484 239.354,257.439 243.328,259.924 C244.322,260.42 244.819,261.414 244.819,262.408 L247.303,301.16 C247.8,309.606 254.756,316.064 263.202,316.064 C263.699,316.064 263.699,316.064 264.195,316.064 C273.138,315.568 280.093,307.618 279.1,298.675 L276.119,250.981 C275.622,245.516 272.641,240.547 267.673,238.064 L235.38,220.178 C233.889,219.184 232.399,217.197 232.399,215.209 L232.896,187.387 C232.896,185.897 234.883,184.407 236.373,185.4 L239.354,186.89 C244.322,189.375 250.284,188.878 254.756,186.394 L305.928,155.094 C314.871,150.126 317.355,138.202 309.903,130.253 Z" style="stroke:none;fill-rule:evenodd;fill:#ffffff;fill-opacity:1;"/>
        </g>
        <g id="Shape7">
            <desc shapeID="7" type="0" basicInfo-basicType="0" basicInfo-roundedRectRadius="12" basicInfo-polygonSides="6" basicInfo-starPoints="5" bounding="rect(-29.4622,-16.087,58.9243,32.1741)" text="" font-familyName="" font-pixelSize="20" font-bold="0" font-underline="0" font-alignment="1" strokeStyle="0" markerStart="0" markerEnd="0" shadowEnabled="0" shadowOffsetX="0" shadowOffsetY="2" shadowBlur="4" shadowOpacity="160" blurEnabled="0" blurRadius="4" transform="matrix(-0.940387,0,0,0.893708,199.925,77.393)" pers-center="0,0" pers-size="0,0" pers-start="0,0" pers-end="0,0" locked="0" mesh="" flag=""/>
            <path id="shapePath7" d="M201.116,82.4342 C201.139,82.4351 201.162,82.4351 201.186,82.4351 C201.513,82.4351 201.829,82.3182 202.067,82.1054 L223.434,63.0159 L227.631,74.5626 C227.552,74.7717 226.815,76.1542 220.603,79.1831 C215.939,81.4573 209.677,83.9232 202.971,86.1252 C192.525,89.5546 182.739,91.7692 178.04,91.7701 C176.62,91.7701 176.165,91.5573 176.061,91.4954 L172.219,80.9311 L201.116,82.4342 Z" style="stroke:none;fill-rule:evenodd;fill:#ffffff;fill-opacity:1;"/>
        </g>
        <g id="Shape8">
            <desc shapeID="8" type="0" basicInfo-basicType="0" basicInfo-roundedRectRadius="12" basicInfo-polygonSides="6" basicInfo-starPoints="5" bounding="rect(-45.379,-18.6525,90.758,37.305)" text="" font-familyName="" font-pixelSize="20" font-bold="0" font-underline="0" font-alignment="1" strokeStyle="0" markerStart="0" markerEnd="0" shadowEnabled="0" shadowOffsetX="0" shadowOffsetY="2" shadowBlur="4" shadowOpacity="160" blurEnabled="0" blurRadius="4" transform="matrix(-0.940387,0,0,0.893708,194.368,63.296)" pers-center="0,0" pers-size="0,0" pers-start="0,0" pers-end="0,0" locked="0" mesh="" flag=""/>
            <path id="shapePath8" d="M167.82,75.4143 C170.111,69.2745 187.886,65.4637 194.54,64.5138 C195.244,64.4137 195.727,63.7907 195.621,63.123 C195.516,62.4553 194.865,61.9943 194.157,62.0963 C193.902,62.1326 187.815,63.0131 181.246,64.9213 C172.137,67.5665 166.805,70.8222 165.396,74.5981 C164.887,75.9586 164.558,77.1018 164.348,78.0759 L151.694,77.4179 L188.638,46.6261 L237.042,47.5038 L200.706,79.9659 L166.942,78.21 C167.132,77.4277 167.409,76.509 167.82,75.4143 Z" style="stroke:none;fill-rule:evenodd;fill:#ffffff;fill-opacity:1;"/>
        </g>
        <g id="Shape9">
            <desc shapeID="9" type="0" basicInfo-basicType="0" basicInfo-roundedRectRadius="12" basicInfo-polygonSides="6" basicInfo-starPoints="5" bounding="rect(-12.2712,-19.9915,24.5424,39.983)" text="" font-familyName="" font-pixelSize="20" font-bold="0" font-underline="0" font-alignment="1" strokeStyle="0" markerStart="0" markerEnd="0" shadowEnabled="0" shadowOffsetX="0" shadowOffsetY="2" shadowBlur="4" shadowOpacity="160" blurEnabled="0" blurRadius="4" transform="matrix(-0.940387,0,0,0.893708,160.99,95.9406)" pers-center="0,0" pers-size="0,0" pers-start="0,0" pers-end="0,0" locked="0" mesh="" flag=""/>
            <path id="shapePath9" d="M149.56,89.0881 C150.318,86.6035 154.578,86.4764 155.424,86.4764 L155.562,86.4847 C157.612,86.6975 159.282,86.2799 160.674,85.2094 C163.766,82.8305 164.319,78.121 164.325,78.074 L166.934,78.21 C166.912,78.4465 166.234,84.0672 162.306,87.1003 C160.395,88.574 158.057,89.1901 155.358,88.9219 C153.72,88.9386 152.141,89.4024 152.03,89.7689 C152.028,89.7805 151.85,90.9306 156.336,93.9353 C157.241,93.6434 158.38,93.872 159.252,94.6184 C159.849,95.1292 160.208,95.7844 160.306,96.4307 C161.892,97.2367 168.998,101.403 172.503,112.756 C172.603,113.079 172.408,113.42 172.067,113.515 C172.008,113.532 171.946,113.54 171.886,113.54 C171.609,113.54 171.353,113.367 171.271,113.101 C168.417,103.859 162.99,99.5541 160.619,98.0492 C163.089,100.117 171.003,107.429 167.013,113.209 C166.887,113.388 166.683,113.485 166.474,113.485 C166.353,113.485 166.229,113.453 166.121,113.385 C165.823,113.2 165.742,112.822 165.937,112.539 C169.308,107.658 162.086,100.938 159.793,98.9921 C161.82,101.096 165.69,105.674 165.303,109.598 C165.137,111.297 164.201,112.682 162.531,113.71 C162.425,113.777 162.302,113.807 162.182,113.807 C161.972,113.807 161.765,113.709 161.643,113.528 C161.449,113.246 161.535,112.867 161.834,112.683 C163.175,111.858 163.892,110.812 164.023,109.485 C164.434,105.33 158.988,99.9215 157.909,98.8911 C157.24,98.8501 156.542,98.5861 155.964,98.0902 C155.269,97.4951 154.907,96.7058 154.891,95.9604 C150.645,93.1293 148.986,90.9693 149.56,89.0881 Z" style="stroke:none;fill-rule:evenodd;fill:#ffffff;fill-opacity:1;"/>
        </g>
    </g>
</svg>
