<?xml version="1.0" encoding="iso-8859-1"?>
<!DOCTYPE svg PUBLIC "-//W3C//DTD SVG 1.1//EN" "http://www.w3.org/Graphics/SVG/1.1/DTD/svg11.dtd">
<svg  version="1.1" xmlns="http://www.w3.org/2000/svg" xmlns:xlink="http://www.w3.org/1999/xlink" x="0px" y="0px" width="512px"
   height="512px" viewBox="0 0 512 512" enable-background="new 0 0 512 512" xml:space="preserve"><g id="c133de6af664cd4f011a55de6b001a2b"><path display="inline" d="m21.53846,350.56604c0.09925,0.59549 -0.1985,1.09174 -1.19099,1.58798c-1.29024,-0.69473 -4.06922,-1.09174 -6.35196,-0.89322c-2.48123,0.19849 -4.56547,0.99249 -4.26772,2.67972c0.397,1.68726 2.77898,2.67975 7.0467,2.28275c10.42118,-0.89322 10.32193,-7.93994 25.60633,-9.32941c11.90992,-1.09177 18.55963,2.58047 19.45287,7.04669c0.69474,3.47372 -2.18349,6.84824 -10.81818,7.54294c-7.6422,0.69476 -12.10843,-1.38947 -12.50542,-3.47372c-0.1985,-1.09174 0.397,-2.67972 4.06923,-3.07672c0.39699,1.68726 2.48123,3.47372 7.4437,2.97748c3.57298,-0.29773 6.55046,-1.58798 6.15346,-3.57297c-0.397,-2.08426 -4.16847,-3.27527 -10.12343,-2.77902c-12.10842,1.09177 -15.0859,7.74149 -25.40784,8.6347c-7.34445,0.69473 -13.29941,-1.98499 -14.09341,-5.95496c-0.29775,-1.48874 -0.29775,-4.96246 7.4437,-5.65723c3.96997,-0.29776 7.14595,0.397 7.54295,1.98499l0.00001,0zm-38.70725,41.48621c-3.37448,4.26773 -4.86322,9.23019 -4.56547,14.09341c0.29775,4.86322 2.67973,8.83322 6.45121,11.90991c3.96997,3.07675 8.2377,3.96997 13.10091,3.07675c1.88574,-0.29776 3.96997,-1.29025 5.85571,-1.88574c-3.96997,0 -7.34445,-1.29022 -10.71893,-3.96997c-3.67223,-2.67975 -6.15346,-6.4512 -6.74896,-11.01669c-0.89324,-4.2677 0,-8.23767 2.38198,-11.71143c2.67973,-3.37445 6.15346,-5.26022 10.71893,-5.85568c4.56547,-0.29779 8.53544,0.89322 12.50542,3.67221c-0.89324,-1.29025 -2.18349,-2.18347 -3.37448,-3.37448c-3.96997,-2.67975 -8.2377,-3.96997 -13.49791,-2.67975c-4.76397,0.99252 -8.73394,3.47375 -12.10842,7.74149l0,-0.00003l0.00001,0zm53.19765,-22.92661c-12.80317,0 -24.21684,-1.29022 -32.45454,-3.07672c-8.83319,-2.18347 -13.49791,-4.56549 -13.49791,-7.64218c0,-1.29025 0.5955,-2.38202 2.38199,-3.67224c-5.55796,2.1835 -8.53545,3.96997 -8.53545,6.74893c0.29775,3.07675 5.26022,6.15347 15.38365,8.53546c9.52794,2.38199 21.73561,3.67224 36.42451,3.67224c14.98665,0 26.89658,-1.29025 36.42451,-3.67224c10.12344,-2.38199 14.98666,-5.55798 14.98666,-8.53546c0,-2.18347 -2.18348,-4.2677 -6.15346,-5.85568c0.89323,0.59549 1.58799,1.58798 1.58799,2.67972c0,3.07675 -4.56548,5.55798 -13.79565,7.64218c-8.53544,1.88577 -19.45287,3.17599 -32.75228,3.17599l-0.00002,0zm36.52377,8.53546c-9.52794,2.18347 -21.73561,3.67221 -36.42451,3.67221c-14.98665,0 -27.19433,-1.58798 -36.72226,-3.67221c-8.53544,-2.1835 -13.10092,-4.56549 -14.6889,-7.04672c1.58799,10.71893 5.26022,20.84238 10.12343,29.77481c3.67223,5.55798 7.34445,10.4212 11.01668,15.6814c1.58799,3.07672 2.67973,6.15347 3.37448,9.23019c2.38198,3.37448 5.85571,5.55798 10.12344,6.74896c5.26021,1.88571 10.71893,2.67975 16.2769,2.38199l0.59549,0c5.55796,0.29776 11.41368,-0.59549 16.77314,-2.38199c3.96997,-1.29022 7.34445,-3.37448 9.82568,-6.74896l0.29775,0c0.59549,-3.07672 1.58799,-6.15347 3.07673,-9.23019c3.67223,-5.26019 7.34446,-10.12341 11.01669,-15.6814c4.8632,-8.83319 8.2377,-18.95663 10.12344,-29.77481c-1.98499,2.77902 -6.55046,5.16098 -14.78815,7.04672l-0.00001,0l-0.00002,0z" ></path></g></svg>