<?xml version="1.0" standalone="no"?><!DOCTYPE svg PUBLIC "-//W3C//DTD SVG 1.1//EN" "http://www.w3.org/Graphics/SVG/1.1/DTD/svg11.dtd"><svg width="100%" height="100%" viewBox="0 0 651 800" version="1.1" xmlns="http://www.w3.org/2000/svg" xmlns:xlink="http://www.w3.org/1999/xlink" xml:space="preserve" style="fill-rule:evenodd;clip-rule:evenodd;stroke-linejoin:round;stroke-miterlimit:1.41421;"><g id="Apple"><clipPath id="tag1"><rect id="Apple1" x="-0.00442843" y="-0.0179912" width="651.427" height="800.014"/></clipPath><g clip-path="url(#tag1)"><path d="M544.027,425.023c-0.90756,-101.243 82.6888,-149.848 86.4703,-152.218c-47.0419,-68.8233 -120.252,-78.2519 -146.369,-79.3611c-62.2687,-6.3025 -121.563,36.6553 -153.126,36.6553c-31.5629,0 -80.3695,-35.7478 -132,-34.7394c-67.9662,1.0084 -130.537,39.4789 -165.529,100.285c-70.5376,122.369 -17.9999,303.73 50.6721,403.058c33.6301,48.5545 73.6636,103.26 126.302,101.243c50.7225,-2.0168 69.8821,-32.773 131.092,-32.773c61.2099,0 78.4535,32.773 132.05,31.815c54.504,-1.05882 89.0922,-49.6133 122.47,-98.319c38.5209,-56.3696 54.4536,-110.924 55.3612,-113.798c-1.21008,-0.5042 -106.285,-40.7898 -107.395,-161.848" style="fill:#000;fill-rule:nonzero;"/></g><path id="Apple Leaf" d="M443.32,127.762c27.9321,-33.8317 46.7889,-80.8739 41.5952,-127.762c-40.238,1.61518 -88.9405,26.8238 -117.832,60.6555c-25.8646,29.9002 -48.5533,77.7976 -42.4049,123.731c44.8752,3.47901 90.7049,-22.8426 118.642,-56.6245" style="fill:#000;fill-rule:nonzero;"/></g></svg>