<?xml version="1.0" standalone="no"?><!DOCTYPE svg PUBLIC "-//W3C//DTD SVG 1.1//EN" "http://www.w3.org/Graphics/SVG/1.1/DTD/svg11.dtd"><svg width="100%" height="100%" viewBox="0 0 570 799" version="1.1" xmlns="http://www.w3.org/2000/svg" xmlns:xlink="http://www.w3.org/1999/xlink" xml:space="preserve" style="fill-rule:evenodd;clip-rule:evenodd;stroke-linejoin:round;stroke-miterlimit:1.41421;"><g id="CSS3"><path id="c133de6af664cd4f011a55de6b001a2b" d="M204.114,72.2542l0,34.4491l-88.0893,0l0,-106.703l88.0893,0l0,37.7535l-50.3359,0l0,34.5007l50.3359,0ZM294.668,37.7535l35.1907,0l0,-37.7535l-88.0987,0c0,0 0,18.9503 0,37.7535c11.786,11.786 17.9317,17.4279 34.9779,34.4741c-9.96485,0 -34.9779,0.0344209 -34.9779,0.0328563l0,34.4428l88.0987,0l0,-34.4491l-35.1907,-34.5007ZM419.53,37.7535l35.1876,0l0,-37.7535l-88.0956,0c0,0 0,18.9503 0,37.7535c11.7829,11.786 17.9317,17.4279 34.9763,34.4741c-9.95859,0 -34.9763,0.0344209 -34.9763,0.0328563l0,34.4428l88.0972,0l0,-34.4491l-35.1891,-34.5007ZM570.746,157.415l-53.5136,579.657l-231.861,62.427l-231.865,-62.427l-53.5057,-579.657l570.746,0ZM462.917,275.278l-177.756,0l-180.897,0l8.6506,69.998l181.922,0l-9.6754,4.02725l-165.951,69.1187l5.50422,68.4194l160.447,0.521007l85.9944,0.273803l-5.50891,91.2326l-80.4855,22.6615l0,-0.071971l-0.660255,0.181492l-77.7349,-19.623l-4.71723,-56.6302l-0.256592,0l-72.104,0l-0.253463,0l9.43759,109.327l146.289,43.2593l0,-0.0782293l0.262851,0.0782293l145.507,-42.4723l18.8799,-217.077l-164.649,0l-0.406792,0l0.406792,-0.175234l170.674,-72.9707l7.08132,-69.9996Z" style="fill:#000;fill-rule:nonzero;"/></g></svg>