<?xml version="1.0" standalone="no"?><!DOCTYPE svg PUBLIC "-//W3C//DTD SVG 1.1//EN" "http://www.w3.org/Graphics/SVG/1.1/DTD/svg11.dtd"><svg width="100%" height="100%" viewBox="0 0 799 706" version="1.1" xmlns="http://www.w3.org/2000/svg" xmlns:xlink="http://www.w3.org/1999/xlink" xml:space="preserve" style="fill-rule:evenodd;clip-rule:evenodd;stroke-linejoin:round;stroke-miterlimit:1.41421;"><g id="Middleman"><path id="M Right" d="M797.933,627.183l-394.832,79.3798l0,-58.9147l394.832,-64.0827l0,43.6176ZM800,181.912l0,355.762l-86.2016,11.1628l0,-225.53l-84.3411,158.966l-1.86047,0l-88.8889,-159.587l0,245.995l-101.499,9.09561l0,-444.858l108.734,15.2972l83.3075,158.346l79.1731,-136.227l91.5762,11.5762ZM797.933,79.5866l-394.832,-79.5866l0,56.2274l394.832,66.9767l0,-43.6176Z" style="fill:#000;fill-opacity:0.35;"/><path id="M Left" d="M0,627.183l403.101,79.3798l0,-58.9147l-403.101,-66.9767l0,46.5116ZM1.86047,181.292l0,353.075l86.2016,14.677l0,-223.463l84.3411,158.966l1.86047,0l88.8889,-159.587l0,240.207l101.705,15.0904l0,-447.959l-108.941,15.2972l-83.3075,161.447l-79.1731,-142.222l-91.5762,14.4703ZM0,79.5866l403.101,-79.5866l0,59.1214l-403.101,66.77l0,-46.3049Z" style="fill:#000;"/></g></svg>