<?xml version="1.0" standalone="no"?><!DOCTYPE svg PUBLIC "-//W3C//DTD SVG 1.1//EN" "http://www.w3.org/Graphics/SVG/1.1/DTD/svg11.dtd"><svg width="100%" height="100%" viewBox="0 0 708 799" version="1.1" xmlns="http://www.w3.org/2000/svg" xmlns:xlink="http://www.w3.org/1999/xlink" xml:space="preserve" style="fill-rule:evenodd;clip-rule:evenodd;stroke-linejoin:round;stroke-miterlimit:1.41421;"><g id="NodeJS"><path d="M354.251,0c-10.7708,1.13687e-13 -21.2426,2.8502 -30.5067,8.09361l-293.238,169.343c-18.9765,10.9251 -30.5067,30.955 -30.5067,52.9198l3.41061e-13,338.064c2.13163e-14,21.9559 11.5303,42.5791 30.5067,53.5424l76.578,44.2036c37.2057,18.3369 50.9276,18.055 67.8619,18.055c55.0864,0 86.5394,-32.8025 86.5394,-90.8975l-3.41061e-13,-333.706c0,-4.71671 -4.0842,-8.7162 -8.71619,-8.7162l-36.7326,1.13687e-13c-4.70678,0 -8.71619,3.99949 -8.71619,8.7162l3.41061e-13,333.706c2.84217e-14,25.7496 -26.821,51.0229 -70.3522,29.2615l-79.691,-46.0713c-2.81406,-1.53704 -4.98064,-4.8639 -4.98064,-8.09361l-3.41061e-13,-338.064c-1.42109e-14,-3.21005 2.14167,-6.46991 4.98064,-8.09361l292.615,-168.721c2.73935,-1.57639 6.00175,-1.57639 8.71619,0l292.615,168.721c2.78923,1.67351 4.98071,4.78644 4.98071,8.09361l4.54747e-13,338.064c0,3.22973 -1.61871,6.53715 -4.35806,8.09361l-293.238,168.721c-2.51522,1.50789 -5.97684,1.50791 -8.71619,1.13687e-13l-75.3329,-44.2036c-2.24129,-1.3134 -5.30438,-1.83861 -7.47103,-0.62258c-20.7943,11.7903 -24.7042,13.162 -44.2035,19.9227c-4.80639,1.68297 -12.1031,4.90299 2.49032,13.0743l98.3685,57.9005c9.36375,5.41847 19.7983,8.09361 30.5067,8.09361c10.8579,0 21.143,-2.67515 30.5067,-8.09361l293.238,-169.343c18.9764,-11.0409 30.5067,-31.5865 30.5067,-53.5424l-2.27374e-13,-338.064c0,-21.9648 -11.5303,-41.9473 -30.5067,-52.9198l-293.238,-169.343c-9.18935,-5.24341 -19.7359,-8.09361 -30.5067,-8.09361ZM432.697,242.186c-83.5012,0 -133.233,34.9146 -133.233,94.0104c5.68434e-14,64.1089 49.3587,81.7231 129.498,89.6523c95.8782,9.3861 103.349,23.464 103.349,42.3358c0,32.7356 -26.0988,46.6939 -87.7846,46.6939c-77.4995,2.27374e-13 -94.5334,-19.3475 -100.236,-57.9005c-0.672152,-4.13398 -3.85999,-6.84845 -8.09361,-6.84845l-37.9777,5.68434e-14c-4.6818,0 -8.71619,3.4043 -8.71619,8.09361c5.68434e-14,49.3486 26.8459,108.33 155.024,108.33c92.7901,-2.27374e-13 146.308,-36.4213 146.308,-100.236c0,-63.2622 -43.2323,-80.2438 -133.233,-92.1427c-90.9473,-12.0333 -99.6137,-18.5431 -99.6137,-39.8455c-5.68434e-14,-17.5793 7.34652,-41.0907 74.7103,-41.0907c60.1667,-5.68434e-14 82.4054,12.9772 91.5201,53.5424c0.796902,3.81521 4.15883,6.84844 8.09361,6.84844l37.9777,-5.68434e-14c2.34098,0 4.60717,-0.809361 6.22587,-2.49034c1.5938,-1.80052 2.71445,-4.4353 2.49032,-6.84844c-5.87715,-69.8641 -52.4715,-102.104 -146.308,-102.104l-1.13687e-13,1.13687e-13Z" style="fill:#000;fill-rule:nonzero;"/></g></svg>