<?xml version="1.0" standalone="no"?><!DOCTYPE svg PUBLIC "-//W3C//DTD SVG 1.1//EN" "http://www.w3.org/Graphics/SVG/1.1/DTD/svg11.dtd"><svg width="100%" height="100%" viewBox="0 0 800 800" version="1.1" xmlns="http://www.w3.org/2000/svg" xmlns:xlink="http://www.w3.org/1999/xlink" xml:space="preserve" style="fill-rule:evenodd;clip-rule:evenodd;stroke-linejoin:round;stroke-miterlimit:1.41421;"><g id="SASS"><path d="M565.653,553.318c-2.53634,-1.80611 -2.11279,-7.64797 6.23135,-25.8307c3.28114,-7.14167 10.7587,-19.1613 23.7569,-30.6503c1.50428,4.72217 2.42438,9.25448 2.4,13.4704c-0.17039,28.1383 -20.2469,38.6487 -32.3882,43.0107ZM458.796,577.674c-3.40286,1.78176 -6.52342,2.90145 -7.97412,2.03978c-1.0613,-0.637739 1.40689,-2.97935 1.40689,-2.97935c0,0 17.3503,-18.6647 24.1853,-27.1646c3.97246,-4.9461 8.58268,-10.8123 13.6067,-17.3747c0.038954,0.657216 0.0632892,1.30955 0.0632892,1.95216c-0.0535729,22.3597 -21.6538,37.4609 -31.288,43.5267ZM320.086,511.491c-8.02769,19.5702 -24.8279,69.6301 -35.0511,66.9477c-8.77738,-2.30267 -14.1227,-40.3575 -1.75255,-77.8135c6.22645,-18.8497 19.5264,-41.3798 27.3399,-50.1231c12.5795,-14.0691 26.4246,-18.6696 29.7935,-12.9689c4.28891,7.26822 -15.3008,61.69 -20.3297,73.9579ZM152.191,625.631c-23.0461,25.1395 -55.2445,34.6422 -69.0508,26.6389c-14.9113,-8.64594 -9.00619,-45.659 19.2781,-72.3368c17.2383,-16.2598 39.491,-31.2345 54.2514,-40.4597c3.35906,-2.02031 8.29544,-4.98992 14.2931,-8.58752c0.993116,-0.564722 1.55783,-0.881157 1.55783,-0.881157l-0.0243463,-0.0340736c1.15864,-0.696158 2.34648,-1.40691 3.56841,-2.13715c10.2914,37.9769 0.316435,71.407 -23.8737,97.7976ZM688.488,444.825c-27.963,0.150913 -52.1775,6.8593 -72.478,16.8683c-7.4289,-14.8188 -14.9406,-27.8559 -16.2014,-37.5485c-1.47508,-11.3137 -3.18385,-18.0659 -1.40208,-31.546c1.77691,-13.4801 9.57578,-32.5684 9.46382,-33.9996c-0.111959,-1.42639 -1.74767,-8.29543 -17.8761,-8.41227c-16.1284,-0.11684 -29.9249,3.10106 -31.546,7.36073c-1.626,4.25969 -4.72703,13.8403 -6.65971,23.8348c-2.82845,14.6241 -32.1984,66.7773 -48.8769,94.0588c-5.45726,-10.6468 -10.0967,-20.0376 -11.0606,-27.4616c-1.47508,-11.3137 -3.1838,-18.0659 -1.40203,-31.546c1.77691,-13.4801 9.57578,-32.5684 9.46378,-33.9996c-0.111959,-1.43127 -1.74767,-8.29545 -17.8761,-8.41229c-16.1284,-0.11684 -29.9249,3.10106 -31.546,7.36075c-1.62595,4.25967 -3.35905,14.2103 -6.65971,23.8348c-3.30552,9.62933 -42.3535,96.6243 -52.5767,119.174c-5.21387,11.489 -9.74617,20.7191 -12.9495,27.0235c-0.00971622,-0.0146078 -0.019477,-0.0340736 -0.019477,-0.0340736c0,0 -0.199584,0.418667 -0.535506,1.12942c-2.74078,5.36477 -4.37163,8.33438 -4.37163,8.33438c0,0 0.0145966,0.038954 0.0486703,0.111971c-2.17608,3.93839 -4.50309,7.59928 -5.65687,7.59928c-0.808118,0 -2.4195,-10.491 0.350519,-24.8863c5.80776,-30.1781 19.7649,-77.244 19.6286,-78.8651c-0.0730054,-0.832453 2.59477,-9.03054 -9.11328,-13.3194c-11.3819,-4.16719 -15.4371,2.77975 -16.4741,2.80409c-1.00772,0.019477 -1.75255,2.45357 -1.75255,2.45357c0,0 12.6768,-52.9272 -24.1853,-52.9272c-23.051,0 -54.9865,25.2125 -70.7157,48.0687c-9.93116,5.41345 -31.1761,17.0095 -53.7159,29.3943c-8.65568,4.75625 -17.4915,9.6196 -25.8697,14.2347c-0.56958,-0.632869 -1.13916,-1.26574 -1.72335,-1.88887c-44.6999,-47.6939 -127.338,-81.4258 -123.828,-145.54c1.27548,-23.309 9.37618,-84.6826 158.782,-159.132c122.387,-60.9841 220.365,-44.2034 237.296,-7.01021c24.1901,53.1365 -52.3625,151.893 -179.462,166.142c-48.429,5.42805 -73.9287,-13.3389 -80.2671,-20.3297c-6.67919,-7.35589 -7.67232,-7.69177 -10.1648,-6.30922c-4.06009,2.24913 -1.48968,8.74819 0,12.6184c3.79235,9.87761 19.3658,27.3886 45.917,36.1027c23.3528,7.66258 80.2087,11.8736 148.967,-14.7215c77.0103,-29.7886 137.142,-112.65 119.481,-181.915c-17.9637,-70.4431 -134.767,-93.6011 -245.314,-54.3293c-65.7939,23.3723 -137.016,60.0592 -188.225,107.958c-60.8916,56.9532 -70.594,106.521 -66.5972,127.236c14.2152,73.5928 115.649,121.52 156.27,157.039c-2.0057,1.10509 -3.88483,2.14201 -5.59357,3.08645c-20.3637,10.0723 -97.6856,50.5369 -117.027,93.2945c-21.941,48.4971 3.49051,83.2951 20.3297,87.9784c52.1629,14.5121 105.694,-11.5912 134.465,-54.5045c28.7614,-42.8987 25.2466,-98.7566 12.0488,-124.256c-0.16551,-0.316435 -0.345639,-0.628 -0.516029,-0.939565c5.25768,-3.11565 10.6224,-6.28 15.9385,-9.40051c10.3644,-6.08527 20.539,-11.7616 29.3651,-16.5665c-4.93638,13.5336 -8.55832,29.7594 -10.4375,53.195c-2.21503,27.5297 9.06949,63.1115 23.8348,77.1125c6.49906,6.16316 14.3174,6.3092 19.2781,6.3092c17.1799,0 25.0178,-14.2931 33.6491,-31.1955c10.5835,-20.7337 19.9792,-44.8655 19.9792,-44.8655c0,0 -11.7908,65.1951 20.3297,65.1951c11.7032,0 23.4745,-15.1742 28.7176,-22.9147c0.0146189,0.0876243 0.0243351,0.131436 0.0243351,0.131436c0,0 0.301827,-0.506291 0.900623,-1.51401c1.21221,-1.85965 1.90349,-3.04264 1.90349,-3.04264c0,0 0.019477,-0.121698 0.058431,-0.335901c4.70265,-8.16887 15.1401,-26.7898 30.7866,-57.4985c20.2177,-39.6759 39.6078,-89.3804 39.6078,-89.3804c0,0 1.80125,12.1511 7.71125,32.2471c3.47591,11.8249 10.8561,24.8912 16.6834,37.4268c-4.68808,6.50881 -7.57005,10.2427 -7.57005,10.2427c0,0 0.0243351,0.0681473 0.0778635,0.194726c-3.7485,4.97531 -7.94979,10.345 -12.3458,15.5783c-15.958,19.0055 -34.9586,40.7031 -37.5047,46.9685c-2.99884,7.38021 -2.28804,12.8083 3.5051,17.1751c4.23048,3.18867 11.7665,3.68523 19.6286,3.1546c14.3369,-0.963901 24.4238,-4.52257 29.404,-6.68406c7.75996,-2.74567 16.7953,-7.06377 25.2758,-13.2951c15.6513,-11.5085 25.0908,-27.9679 24.1853,-49.7726c-0.501411,-12.0147 -4.33272,-23.9273 -9.18143,-35.1728c1.42151,-2.03978 2.84302,-4.09902 4.27429,-6.1875c24.6721,-36.0735 43.8139,-75.7105 43.8139,-75.7105c0,0 1.80125,12.151 7.71125,32.2471c2.98908,10.1697 8.88936,21.2692 14.1909,32.1497c-23.1971,18.8546 -37.5875,40.7567 -42.5823,55.1277c-9.23986,26.5756 -2.00573,38.6195 11.5669,41.3603c6.14859,1.2414 14.8286,-1.57243 21.3569,-4.33758c8.12989,-2.69699 17.8907,-7.18548 27.0137,-13.889c15.6513,-11.5036 30.6989,-27.6174 29.7935,-49.4221c-0.413786,-9.92628 -3.10594,-19.7796 -6.7571,-29.2434c19.6627,-8.1932 45.1283,-12.7498 77.5604,-8.96239c69.5765,8.12506 83.227,51.569 80.6176,69.7518c-2.60939,18.1828 -17.2042,28.1772 -22.0822,31.1955c-4.87799,3.0183 -6.3676,4.06496 -5.95872,6.3092c0.593938,3.26171 2.84792,3.14 7.01021,2.43898c5.72508,-0.968781 36.536,-14.7896 37.8553,-48.356c1.67467,-42.6115 -39.1502,-89.4145 -111.463,-89.0299Z" style="fill:#030404;fill-rule:nonzero;"/></g></svg>