<?xml version="1.0"?>
<svg version="1.1" xmlns="http://www.w3.org/2000/svg" xmlns:xlink="http://www.w3.org/1999/xlink" width="800" height="800">
    <desc iVinci="yes" version="4.6" gridStep="20" showGrid="no" snapToGrid="no" codePlatform="0"/>
    <g id="Layer1" name="Layer 1" opacity="1">
        <g id="Shape1">
            <desc shapeID="1" type="0" basicInfo-basicType="0" basicInfo-roundedRectRadius="12" basicInfo-polygonSides="6" basicInfo-starPoints="5" bounding="rect(-400,-400,800,800)" text="" font-familyName="" font-pixelSize="20" font-bold="0" font-underline="0" font-alignment="1" strokeStyle="0" markerStart="0" markerEnd="0" shadowEnabled="0" shadowOffsetX="0" shadowOffsetY="2" shadowBlur="4" shadowOpacity="160" blurEnabled="0" blurRadius="4" transform="matrix(1,0,0,1,400,400)" pers-center="0,0" pers-size="0,0" pers-start="0,0" pers-end="0,0" locked="0" mesh="" flag=""/>
            <path id="shapePath1" d="M0,0 Z" style="stroke:none;fill-rule:evenodd;fill:#000000;fill-opacity:1;"/>
        </g>
        <g id="Shape2">
            <desc shapeID="2" type="0" basicInfo-basicType="0" basicInfo-roundedRectRadius="12" basicInfo-polygonSides="6" basicInfo-starPoints="5" bounding="rect(-12,-10.7185,24,21.437)" text="" font-familyName="" font-pixelSize="20" font-bold="0" font-underline="0" font-alignment="1" strokeStyle="0" markerStart="0" markerEnd="0" shadowEnabled="0" shadowOffsetX="0" shadowOffsetY="2" shadowBlur="4" shadowOpacity="160" blurEnabled="0" blurRadius="4" transform="matrix(1,0,0,1,-123.308,-530.226)" pers-center="0,0" pers-size="0,0" pers-start="0,0" pers-end="0,0" locked="0" mesh="" flag=""/>
            <path id="shapePath2" d="M-120.352,-540.945 C-120.352,-540.945 -115.017,-537.77 -113.622,-532.719 C-112.362,-528.163 -113.372,-525.988 -113.372,-525.988 C-113.372,-525.988 -112.621,-525.263 -111.877,-523.496 C-110.764,-520.854 -111.627,-519.508 -111.627,-519.508 C-111.627,-519.508 -111.709,-521.365 -114.369,-521.75 C-116.806,-522.104 -117.693,-519.637 -122.346,-519.755 C-125.025,-519.826 -130.607,-520.487 -135.308,-527.234 C-133.027,-525.936 -130.046,-523.939 -126.335,-524.243 C-122.621,-524.548 -121.847,-525.739 -121.847,-525.739 C-121.847,-525.739 -128.957,-531.514 -132.816,-537.704 C-129.905,-535.155 -122.676,-530.098 -122.846,-530.226 C-125.051,-531.919 -130.074,-538.95 -130.074,-538.95 C-130.074,-538.95 -119.23,-529.677 -118.359,-529.727 C-117.999,-530.497 -116.145,-534.478 -120.352,-540.945 Z" style="stroke:none;fill-rule:nonzero;fill:#000000;fill-opacity:1;"/>
        </g>
        <g id="Shape3">
            <desc shapeID="3" type="0" basicInfo-basicType="0" basicInfo-roundedRectRadius="12" basicInfo-polygonSides="6" basicInfo-starPoints="5" bounding="rect(-12,-10.7185,24,21.437)" text="" font-familyName="" font-pixelSize="20" font-bold="0" font-underline="0" font-alignment="1" strokeStyle="0" markerStart="0" markerEnd="0" shadowEnabled="0" shadowOffsetX="0" shadowOffsetY="2" shadowBlur="4" shadowOpacity="160" blurEnabled="0" blurRadius="4" transform="matrix(33.3334,0,0,33.4139,400,400)" pers-center="0,0" pers-size="0,0" pers-start="0,0" pers-end="0,0" locked="0" mesh="" flag=""/>
            <path id="shapePath3" d="M498.534,41.8531 C498.534,41.8531 676.367,147.942 722.867,316.716 C764.867,468.95 731.201,541.625 731.201,541.625 C731.201,541.625 756.234,565.85 781.034,624.892 C818.134,713.172 789.367,758.147 789.367,758.147 C789.367,758.147 786.634,696.097 697.967,683.233 C616.734,671.404 587.167,753.837 432.067,749.894 C342.767,747.521 156.7,725.435 0.000183105,499.991 C76.0336,543.362 175.4,610.09 299.1,599.932 C422.9,589.741 448.701,549.945 448.701,549.945 C448.701,549.945 211.7,356.98 83.0669,150.148 C180.1,235.32 421.067,404.294 415.4,400.017 C341.9,343.447 174.467,108.514 174.467,108.514 C174.467,108.514 535.934,418.361 564.967,416.69 C576.967,390.962 638.767,257.941 498.534,41.8531 Z" style="stroke:none;fill-rule:nonzero;fill:#000000;fill-opacity:1;"/>
        </g>
    </g>
</svg>
