<?xml version="1.0" standalone="no"?><!DOCTYPE svg PUBLIC "-//W3C//DTD SVG 1.1//EN" "http://www.w3.org/Graphics/SVG/1.1/DTD/svg11.dtd"><svg width="100%" height="100%" viewBox="0 0 756 817" version="1.1" xmlns="http://www.w3.org/2000/svg" xmlns:xlink="http://www.w3.org/1999/xlink" xml:space="preserve" style="fill-rule:evenodd;clip-rule:evenodd;stroke-miterlimit:1.41421;"><g id="Paperbox"><path d="M593.889,46.631l-271.977,-35.3136l134.44,245.399l256.303,67.9013l-118.765,-277.986Z" style="fill:#fff;fill-rule:nonzero;"/><path d="M741.339,383.969l-250.789,84.8766l-88.7178,331.762l248.435,-123.288l91.072,-293.351Z" style="fill:#fff;fill-rule:nonzero;stroke-width:1.86px;stroke:#fff;"/><path d="M394.8,803.06l254.16,-128.911l91.3368,-289.283l-30.6593,9.26681l-0.481951,0.0813292l-0.319584,0.0347664l-0.320699,0.0157996l-0.317224,-0.00301798l-0.310371,-0.0208904l-0.305589,-0.0379511l-0.301929,-0.0549564l-0.297181,-0.0714824l-0.289245,-0.0869713l-0.28119,-0.101595l-0.276302,-0.117329l-0.271112,-0.133219l-0.263779,-0.148376l-0.253662,-0.161819l-0.247749,-0.177941l-0.241565,-0.195353l-0.233831,-0.212379l-0.220716,-0.225749l-0.211887,-0.243155l-0.204736,-0.266696l-0.187213,-0.278509l-0.172647,-0.294677l-0.156106,-0.311411l-0.139919,-0.330867l-0.119599,-0.34869l-0.0953181,-0.355352l-0.0712655,-0.365131l-0.0465211,-0.376821l-0.0194917,-0.385173l0.00820416,-0.379442l0.03433,-0.375234l0.0333748,-0.2041l9.89173,-60.2l-120.969,-278.51l-265.341,-34.6304l130.701,239.069l-0.17049,-0.193223l0.320796,0.45886l0.241667,0.438187l0.176847,0.401105l0.12493,0.359646l0.08687,0.315035l0.0584444,0.274039l0.0453221,0.274011l0.0338894,0.317827l0.0135942,0.261151l0.00311971,0.168019l0.00166031,0.635899l-67.6298,304.676l-0.0905993,0.294559l-0.0676074,0.194637l-0.0759992,0.194081l-0.0862392,0.198251l-0.0953785,0.196207l-0.101352,0.18978l-0.109804,0.186736l-0.145981,0.227572l-0.233818,0.318574l-0.291819,0.336011l-0.319902,0.311699l-0.344458,0.283999l-0.363989,0.25227l-0.381305,0.220543l-0.396363,0.18743l-0.406428,0.153323l-0.415406,0.119267l-0.420672,0.0850252l-0.424769,0.0509723l-0.426284,0.0169706l-0.426688,-0.0169705l-0.424366,-0.0509725l-0.421074,-0.0850245l-0.415007,-0.119269l-0.406823,-0.153319l-0.395973,-0.187438l-0.381685,-0.220529l-0.363619,-0.252291l-0.344819,-0.283969l-0.319555,-0.311742l-0.292151,-0.335954l-0.232531,-0.317266l-0.145398,-0.225979l-0.111527,-0.189668l-0.102993,-0.192853l-0.0935832,-0.193204l-0.0851274,-0.194948l-0.0772652,-0.197314l-0.0687338,-0.197879l-0.0363948,-0.118914l-85.5041,-283.874l-242.52,56.3805l19.1258,80.9169l0.0613621,0.376407l0.0341648,0.377985l0.0075611,0.373538l-0.0179634,0.366648l-0.0417219,0.357124l-0.0640994,0.347268l-0.0848483,0.336047l-0.10395,0.323439l-0.121616,0.310778l-0.138836,0.29936l-0.155358,0.287929l-0.170203,0.27456l-0.184986,0.262527l-0.201984,0.25327l-0.21591,0.239685l-0.229699,0.226625l-0.247945,0.216839l-0.265938,0.205105l-0.280703,0.189677l-0.297561,0.174913l-0.314344,0.158141l-0.333565,0.141247l-0.352419,0.121134l-0.365521,0.0977496l-0.379155,0.0727436l-0.393345,0.0461237l-0.404355,0.0165979l-0.406492,-0.0143124l-0.406855,-0.0455884l-0.407708,-0.0778625l-0.396304,-0.108469l-0.254393,-0.090651l-46.3247,-17.6307l127.814,268.872l249.043,129.991ZM394.77,813.543l-0.332248,-0.0103828l-0.328679,-0.0308137l-0.321743,-0.0502724l-0.311819,-0.0682104l-0.299414,-0.0842103l-0.285111,-0.098007l-0.269508,-0.109487l-0.236847,-0.111022l-253.229,-132.176l-1.32787,-1.32787l-133.801,-281.467l-0.161519,-0.455249l-0.109262,-0.408331l-0.0757586,-0.409902l-0.0431656,-0.407658l-0.0118637,-0.402645l0.0177487,-0.394011l0.0453745,-0.383625l0.0711086,-0.371848l0.0950302,-0.35929l0.117068,-0.345162l0.137462,-0.330902l0.157575,-0.318334l0.176677,-0.30496l0.19366,-0.289313l0.212586,-0.277576l0.232022,-0.265117l0.248129,-0.248976l0.265024,-0.233432l0.284988,-0.219676l0.303779,-0.202979l0.322482,-0.18526l0.338748,-0.164139l0.353792,-0.142065l0.371771,-0.118982l0.385688,-0.0930787l0.394681,-0.0646025l0.400351,-0.0353965l0.406995,-0.00529978l0.407205,0.0256332l0.398891,0.0554574l0.392854,0.0843783l0.39642,0.116612l48.9961,18.6474l-18.1352,-76.726l-0.0068868,-0.0230351l-0.072279,-0.308947l-0.0525931,-0.306506l-0.0339048,-0.301982l-0.0162621,-0.296332l0.000117317,-0.290476l0.0155823,-0.28402l0.0299449,-0.277337l0.0436747,-0.271174l0.0565682,-0.264552l0.068678,-0.257063l0.0802903,-0.250493l0.0921307,-0.245279l0.103289,-0.238986l0.113558,-0.231316l0.124102,-0.225094l0.135752,-0.220452l0.146475,-0.214035l0.155874,-0.205741l0.166239,-0.198975l0.178407,-0.193585l0.189005,-0.185857l0.197523,-0.175954l0.207468,-0.167369l0.219581,-0.159695l0.22914,-0.149472l0.235653,-0.137196l0.243747,-0.125937l0.253972,-0.115112l0.26057,-0.102127l0.263254,-0.0877962l0.24612,-0.068378l250.988,-58.3492l0.0132411,-0.00396549l0.307348,-0.0720429l0.2985,-0.051568l0.288519,-0.0334719l0.28465,-0.0175028l0.273356,-0.00218685l0.260579,0.010754l0.252479,0.0226635l0.240422,0.0328363l0.23165,0.0420523l0.219915,0.0498246l0.209763,0.0563737l0.207116,0.0646022l0.195965,0.0697451l0.186671,0.0741369l0.221959,0.0977045l0.304474,0.153717l0.323925,0.192145l0.30594,0.210383l0.291262,0.229805l0.2781,0.251298l0.235034,0.242949l0.158457,0.18183l0.125348,0.154975l0.121308,0.161262l0.513923,0.739738l81.9532,272.085l63.3251,-285.283l-134.438,-245.905l-0.0955161,-0.172375l-0.163241,-0.351944l-0.138553,-0.365192l-0.111142,-0.373065l-0.0847762,-0.382465l-0.0563265,-0.388931l-0.0280331,-0.390261l0.000805123,-0.388673l0.0280534,-0.382128l0.0556326,-0.381103l0.082262,-0.373016l0.106752,-0.360991l0.131671,-0.352532l0.156273,-0.34263l0.17906,-0.32935l0.199864,-0.313359l0.221951,-0.300275l0.244127,-0.285753l0.263806,-0.268423l0.28191,-0.248967l0.300932,-0.230608l0.319788,-0.21045l0.335063,-0.187899l0.349555,-0.164065l0.360607,-0.13871l0.372046,-0.113054l0.379287,-0.0858366l0.383126,-0.0581231l0.384707,-0.0304195l0.382939,-0.00299722l0.377843,0.0235728l0.200321,0.0264458l276.575,36.0965l0.141365,0.00865125l0.564851,0.101289l0.506087,0.147165l0.443632,0.177334l0.385656,0.193873l0.334841,0.202667l0.295572,0.208073l0.258969,0.209225l0.227232,0.20623l0.202438,0.205321l0.185795,0.20825l0.168642,0.209912l0.153224,0.209751l0.141863,0.215092l0.13592,0.22783l0.160906,0.303978l123.031,283.257l0,1.68219l-8.9891,54.7067l31.9693,-9.66275l0.567914,-0.0773077l0.326484,-0.025092l0.327777,-0.00559045l0.325431,0.0136586l0.324223,0.0328441l0.31988,0.0516916l0.31647,0.0703267l0.310372,0.0886332l0.30225,0.105632l0.29747,0.123946l0.291246,0.142071l0.281708,0.158787l0.271572,0.174911l0.26629,0.194805l0.256324,0.213026l0.243927,0.229207l0.232487,0.247556l0.222932,0.269531l0.208413,0.28925l0.189582,0.303331l0.174476,0.326038l0.155678,0.347987l0.132861,0.365369l0.106094,0.376034l0.0806139,0.392993l0.0510669,0.408535l0.0197315,0.415259l-0.0133626,0.417359l-0.0450533,0.409812l-0.0780271,0.41311l-0.109767,0.400942l-0.0424772,0.119234l-94.2469,298.5l0.0156551,-0.485307l-0.0398944,0.387863l-0.0759611,0.415254l-0.11822,0.436289l-0.164357,0.442849l-0.208391,0.434148l-0.242613,0.402799l-0.266307,0.365432l-0.280362,0.321592l-0.278642,0.273754l-0.262284,0.222733l-0.241832,0.18225l-0.223077,0.149462l-0.19737,0.120006l-0.167812,0.0930682l-0.103838,0.0538728l-258.064,130.891l-0.210655,0.0987445l-0.269508,0.109487l-0.285111,0.098007l-0.299414,0.0842103l-0.311819,0.0682104l-0.321743,0.0502724l-0.328679,0.0308137l-0.332248,0.0103828ZM742.859,376.749l0.03795,-0.120196l-0.0217856,0.0611527l-0.0161643,0.0590429ZM594.718,49.6471l-0.229675,-0.0299756l0.134776,0.0241679l0.0948998,0.00580767ZM317.932,13.5231l-0.13425,-0.0175214l0.131349,0.0173403l0.0029015,0.000181018ZM322.419,6.94518l-0.00472611,-0.0101894l-0.0631477,-0.113961l0.0678738,0.12415Z" style="fill:#000;"/><path d="M716.891,332.132l-264.852,-70.6273l2.55411,-9.5779l264.852,70.6273l-2.55411,9.5779Z" style="fill:#000;"/><path d="M394.465,811.63l-0.212148,-0.00610499l-0.211749,-0.0139019l-0.207889,-0.0206722l-0.211317,-0.0286069l-0.206933,-0.0354934l-0.210074,-0.0434517l-0.213706,-0.0525507l-0.208975,-0.0595096l-0.204099,-0.0661575l-0.206359,-0.075008l-0.209126,-0.0851531l-0.203863,-0.0921013l-0.198253,-0.0986019l-0.201942,-0.109854l-0.200068,-0.119602l-0.191217,-0.12438l-0.192317,-0.135926l-0.187941,-0.144683l-0.182132,-0.151929l-0.176994,-0.160304l-0.170786,-0.167502l-0.166392,-0.177068l-0.162206,-0.187505l-0.151676,-0.191228l-0.143492,-0.196339l-0.137625,-0.205986l-0.127959,-0.209677l-0.119822,-0.215784l-0.110118,-0.219208l-0.0801992,-0.177028l-131.861,-307.758l-192.339,-78.2238l3.73441,-9.18225l196.111,79.7583l128.994,301.066l89.904,-330.796l222.706,-77.9942l3.27639,9.35547l-217.785,76.2706l-91.5138,336.719l-0.0509147,0.17609l-0.0774437,0.232669l-0.0884225,0.233003l-0.0982072,0.229446l-0.107358,0.224395l-0.1173,0.221057l-0.12652,0.215676l-0.136194,0.21144l-0.142573,0.201543l-0.149918,0.194893l-0.159669,0.19l-0.166343,0.182194l-0.169718,0.170656l-0.174753,0.162604l-0.182879,0.156375l-0.187177,0.147633l-0.190288,0.137782l-0.193456,0.129094l-0.197413,0.120549l-0.196624,0.110095l-0.20098,0.102743l-0.205811,0.0955488l-0.201467,0.0842943l-0.20572,0.0778495l-0.209748,0.0701523l-0.20672,0.0611864l-0.207894,0.0533061l-0.20806,0.0457424l-0.211951,0.0386306l-0.208116,0.0303328l-0.208597,0.0231775l-0.212366,0.0160212l-0.212399,0.00849595l-0.208196,0.000999339Z" style="fill:#000;"/><path d="M306.781,603.222l-4.05999,-9.04301l82.8321,-37.1886l69.4229,33.5299l-4.3111,8.92603l-65.2646,-31.5215l-78.6193,35.2972Z" style="fill:#000;"/><path d="M503.932,483.9l-78.5573,285.731l207.545,-103.463l85.2483,-260.515l-214.236,78.2476Z" style="fill:#592b2a;fill-rule:nonzero;"/><path d="M583.109,63.7302l-232.698,-32.7735l113.995,207.731l220.555,58.2365l-101.852,-233.194Z" style="fill:#f89720;fill-rule:nonzero;"/></g></svg>