<?xml version="1.0" standalone="no"?><!DOCTYPE svg PUBLIC "-//W3C//DTD SVG 1.1//EN" "http://www.w3.org/Graphics/SVG/1.1/DTD/svg11.dtd"><svg width="100%" height="100%" viewBox="0 0 460 461" version="1.1" xmlns="http://www.w3.org/2000/svg" xmlns:xlink="http://www.w3.org/1999/xlink" xml:space="preserve" style="fill-rule:evenodd;clip-rule:evenodd;stroke-miterlimit:1.41421;"><g id="Paperbox"><path id="i" d="M460.583,24.26c0,-13.3984 -10.8616,-24.26 -24.26,-24.26l-411.565,0c-13.3984,0 -24.26,10.8616 -24.26,24.26l0,406.422c0,13.3984 10.8616,24.26 24.26,24.26l411.565,0c13.3984,0 24.26,-10.8616 24.26,-24.26l0,-406.422Z" style="fill:#d0b86e;"/><path id="i1" d="M460.085,30.7203c0,-13.3984 -10.8616,-24.26 -24.26,-24.26l-411.565,0c-13.3984,0 -24.26,10.8616 -24.26,24.26l0,406.422c0,13.3984 10.8616,24.26 24.26,24.26l411.565,0c13.3984,0 24.26,-10.8616 24.26,-24.26l0,-406.422Z" style="fill:#000;fill-opacity:0.197608;"/><path id="i2" d="M460.583,29.1117c0,-13.2475 -10.7392,-23.9867 -23.9867,-23.9867l-412.111,0c-13.2475,0 -23.9867,10.7392 -23.9867,23.9867l0,401.844c0,13.2475 10.7392,23.9867 23.9867,23.9867l412.111,0c13.2475,0 23.9867,-10.7392 23.9867,-23.9867l0,-401.844Z" style="fill:#ffc100;"/><g id="Paperbox1"><path d="M325.997,70.1661l-120.628,-15.6624l59.6273,108.84l113.676,30.1158l-52.6751,-123.293l-0.000443524,-0.000310466Z" style="fill:#fff;fill-rule:nonzero;"/><path d="M391.395,219.783l-111.231,37.6448l-39.3484,147.144l110.187,-54.6811l40.3926,-130.108l-8.87047e-05,0.000177409Z" style="fill:#fff;fill-rule:nonzero;stroke-width:0.82px;stroke:#fff;"/><path d="M237.696,405.66l112.726,-57.1751l40.51,-128.304l-13.5981,4.11005l-0.213757,0.0360714l-0.141743,0.0154197l-0.142238,0.00700749l-0.140696,-0.00133855l-0.137657,-0.00926538l-0.135536,-0.0168322l-0.133913,-0.0243745l-0.131807,-0.0317041l-0.128287,-0.0385738l-0.124714,-0.0450598l-0.122546,-0.0520382l-0.120245,-0.0590858l-0.116992,-0.0658083l-0.112505,-0.0717705l-0.109883,-0.078921l-0.10714,-0.0866437l-0.10371,-0.0941951l-0.0978927,-0.100125l-0.0939769,-0.107845l-0.0908052,-0.118286l-0.0830334,-0.123525l-0.076573,-0.130696l-0.0692367,-0.138118l-0.0620574,-0.146747l-0.053045,-0.154652l-0.0422758,-0.157607l-0.0316079,-0.161944l-0.0206332,-0.167129l-0.00864503,-0.170833l0.00363874,-0.168291l0.0152262,-0.166425l0.0148025,-0.0905232l4.38722,-26.7001l-53.6526,-123.526l-117.685,-15.3594l57.969,106.033l-0.0756163,-0.085699l0.142281,0.203515l0.107185,0.194346l0.0784358,0.1779l0.0554094,0.159511l0.0385289,0.139725l0.0259215,0.121543l0.0201014,0.12153l0.0150307,0.140964l0.00602935,0.115827l0.00138366,0.0745204l0.000736387,0.282036l-29.9954,135.131l-0.0401829,0.130644l-0.0299855,0.0863261l-0.0337074,0.0860795l-0.0382491,0.087929l-0.0423026,0.0870224l-0.044952,0.0841719l-0.0487007,0.0828218l-0.064746,0.100934l-0.103704,0.141295l-0.129429,0.149029l-0.141884,0.138246l-0.152775,0.12596l-0.161438,0.111888l-0.169118,0.097816l-0.175796,0.0831296l-0.18026,0.0680024l-0.184242,0.0528977l-0.186578,0.0377107l-0.188395,0.0226074l-0.189067,0.00752686l-0.189246,-0.00752682l-0.188216,-0.0226075l-0.186756,-0.0377104l-0.184065,-0.0528986l-0.180436,-0.0680006l-0.175623,-0.0831332l-0.169286,-0.0978098l-0.161274,-0.111897l-0.152935,-0.125947l-0.14173,-0.138265l-0.129576,-0.149004l-0.103133,-0.140715l-0.0644874,-0.100227l-0.0494649,-0.0841222l-0.0456798,-0.0855348l-0.0415064,-0.0856905l-0.037756,-0.086464l-0.0342689,-0.0875134l-0.0304851,-0.087764l-0.016142,-0.0527412l-37.9231,-125.905l-107.563,25.0061l8.48274,35.8886l0.0272155,0.166945l0.0151529,0.167645l0.00335353,0.165673l-0.00796719,0.162617l-0.0185046,0.158393l-0.0284296,0.154022l-0.0376322,0.149045l-0.0461043,0.143453l-0.0539396,0.137837l-0.061577,0.132773l-0.0689049,0.127703l-0.075489,0.121774l-0.0820456,0.116437l-0.0895847,0.112331l-0.0957612,0.106306l-0.101877,0.100514l-0.109969,0.0961732l-0.11795,0.0909689l-0.124498,0.0841262l-0.131975,0.077578l-0.139419,0.0701393l-0.147944,0.0626464l-0.156306,0.0537258l-0.162117,0.0433543l-0.168164,0.0322635l-0.174458,0.0204569l-0.179341,0.00736156l-0.180289,-0.00634789l-0.18045,-0.0202195l-0.180828,-0.0345339l-0.17577,-0.0481086l-0.112829,-0.0402059l-20.5461,-7.81963l56.6885,119.251l110.456,57.6541l-0.000190573,-0.000112974ZM237.683,410.31l-0.14736,-0.00460502l-0.145777,-0.0136666l-0.142701,-0.022297l-0.138299,-0.0302529l-0.132797,-0.0373493l-0.126453,-0.0434684l-0.119533,-0.0485601l-0.105047,-0.0492409l-112.313,-58.6232l-0.588942,-0.588942l-59.3439,-124.837l-0.0716375,-0.201914l-0.0484603,-0.181104l-0.0336007,-0.181801l-0.019145,-0.180806l-0.00526183,-0.178583l0.00787197,-0.174753l0.0201247,-0.170147l0.0315383,-0.164923l0.0421481,-0.159354l0.0519224,-0.153087l0.0609676,-0.146763l0.0698882,-0.141189l0.0783604,-0.135257l0.0858928,-0.128317l0.0942869,-0.123111l0.102907,-0.117586l0.110051,-0.110427l0.117544,-0.103533l0.126399,-0.0974315l0.134733,-0.090026l0.143028,-0.0821672l0.150243,-0.0727995l0.156915,-0.0630092l0.164889,-0.0527713l0.171062,-0.0412826l0.17505,-0.0286527l0.177565,-0.0156992l0.180512,-0.00235058l0.180605,0.0113689l0.176918,0.0245967l0.17424,0.0374238l0.175822,0.0517202l21.7309,8.27056l-8.04339,-34.0298l-0.00305446,-0.0102166l-0.0320574,-0.137025l-0.0233263,-0.135943l-0.0150376,-0.133936l-0.00721262,-0.13143l5.20329e-05,-0.128833l0.00691112,-0.12597l0.0132813,-0.123005l0.0193708,-0.120272l0.0250893,-0.117335l0.0304603,-0.114013l0.0356106,-0.1111l0.0408621,-0.108787l0.0458111,-0.105996l0.0503656,-0.102594l0.0550422,-0.0998345l0.0602092,-0.0977757l0.0649651,-0.0949296l0.0691338,-0.091251l0.0737309,-0.0882501l0.0791277,-0.0858595l0.0838282,-0.082432l0.0876061,-0.0780397l0.0920169,-0.0742321l0.0973893,-0.0708285l0.101629,-0.0662944l0.104518,-0.0608497l0.108108,-0.055856l0.112643,-0.0510549l0.115569,-0.0452957l0.116759,-0.0389397l0.10916,-0.0303273l111.319,-25.8792l0.00587274,-0.00175879l0.136316,-0.0319527l0.132392,-0.0228716l0.127965,-0.0148456l0.126249,-0.0077629l0.12124,-0.000969919l0.115573,0.00476965l0.11198,0.0100518l0.106633,0.0145637l0.102742,0.0186512l0.0975375,0.0220984l0.0930348,0.0250031l0.0918608,0.0286526l0.0869151,0.0309336l0.082793,0.0328815l0.098444,0.0433342l0.135041,0.0681771l0.143668,0.0852208l0.135692,0.0933098l0.129182,0.101924l0.123344,0.111457l0.104243,0.107754l0.0702794,0.0806459l0.0555948,0.0687351l0.053803,0.0715235l0.227937,0.328091l36.3482,120.676l28.0862,-126.53l-59.6264,-109.065l-0.0423636,-0.0764524l-0.0724012,-0.156095l-0.0614515,-0.161971l-0.0492941,-0.165463l-0.0376002,-0.169632l-0.0249821,-0.1725l-0.0124333,-0.17309l0.000357091,-0.172386l0.0124423,-0.169483l0.0246744,-0.169028l0.0364851,-0.165441l0.047347,-0.160108l0.0583992,-0.156356l0.0693108,-0.151964l0.0794173,-0.146074l0.0886444,-0.138982l0.0984405,-0.133179l0.108276,-0.126738l0.117004,-0.119052l0.125034,-0.110423l0.13347,-0.10228l0.141834,-0.0933395l0.148608,-0.0833376l0.155036,-0.0727667l0.159938,-0.0615212l0.165011,-0.0501421l0.168223,-0.0380706l0.169925,-0.025779l0.170627,-0.0134918l0.169842,-0.00132934l0.167582,0.0104551l0.0888471,0.0117293l122.668,16.0096l0.0626987,0.00383703l0.250525,0.0449241l0.224462,0.0652711l0.196761,0.0786518l0.171048,0.0859872l0.14851,0.0898876l0.131093,0.0922853l0.114859,0.0927962l0.100783,0.0914679l0.089786,0.0910647l0.0824045,0.0923638l0.0747967,0.0931009l0.0679585,0.0930295l0.0629196,0.0953984l0.0602837,0.101048l0.0713656,0.134821l54.5671,125.631l0,0.746091l-3.98688,24.2637l14.1791,-4.28566l0.251883,-0.0342878l0.144803,-0.0111289l0.145377,-0.0024795l0.144336,0.00605791l0.143801,0.0145671l0.141874,0.0229264l0.140362,0.0311915l0.137657,0.0393109l0.134055,0.0468503l0.131935,0.054973l0.129174,0.0630118l0.124944,0.0704258l0.120449,0.0775771l0.118106,0.0864006l0.113686,0.094482l0.108187,0.101659l0.103113,0.109797l0.0988756,0.119543l0.0924361,0.128289l0.0840841,0.134534l0.0773842,0.144606l0.0690469,0.15434l0.058927,0.16205l0.0470552,0.16678l0.0357542,0.174302l0.0226494,0.181195l0.00875139,0.184177l-0.00592663,0.185109l-0.0199822,0.181761l-0.0346069,0.183224l-0.0486843,0.177827l-0.0188396,0.0528831l-41.8007,132.392l0.00694341,-0.215245l-0.0176941,0.172026l-0.0336905,0.184175l-0.0524334,0.193504l-0.0728962,0.196414l-0.0924263,0.192555l-0.107605,0.178651l-0.118113,0.162078l-0.124347,0.142634l-0.123584,0.121416l-0.116329,0.0987873l-0.107258,0.0808322l-0.0989399,0.0662899l-0.0875382,0.0532255l-0.0744286,0.0412779l-0.0460546,0.0238939l-114.457,58.0532l-0.0934305,0.0437955l-0.119533,0.0485601l-0.126453,0.0434684l-0.132797,0.0373493l-0.138299,0.0302529l-0.142701,0.022297l-0.145777,0.0136666l-0.14736,0.00460502l-0.000171085,0.000103669ZM392.069,216.581l0.0168317,-0.0533098l-0.00966243,0.0271227l-0.00716925,0.0261869l-4.43523e-08,1.77409e-07ZM326.365,71.5038l-0.101866,-0.0132949l0.0597763,0.010719l0.0420899,0.00257585ZM203.604,55.4819l-0.059543,-0.00777115l0.0582564,0.00769083l0.00128666,8.03221e-05ZM205.594,52.5645l-0.00209614,-0.00451924l-0.0280075,-0.0505444l0.0301036,0.0550636Z" style="fill:#000;stroke-width:3px;stroke-linejoin:round;stroke:#000;"/><path d="M380.551,196.792l-117.468,-31.3249l1.13281,-4.24802l117.468,31.3249l-1.13281,4.24802l0,0Z" style="fill:#000;"/><path d="M237.548,409.461l-0.0940926,-0.00270771l-0.0939157,-0.00616582l-0.0922037,-0.00916861l-0.0937241,-0.0126878l-0.0917797,-0.0157422l-0.0931728,-0.0192719l-0.0947836,-0.0233075l-0.0926853,-0.0263939l-0.0905227,-0.0293424l-0.0915251,-0.0332678l-0.0927523,-0.0377674l-0.090418,-0.0408491l-0.0879299,-0.0437323l-0.089566,-0.0487228l-0.0887349,-0.0530463l-0.0848092,-0.0551655l-0.0852971,-0.0602864l-0.0833563,-0.0641703l-0.0807798,-0.0673841l-0.078501,-0.0710986l-0.0757476,-0.0742911l-0.0737988,-0.0785338l-0.0719422,-0.0831629l-0.0672719,-0.0848141l-0.0636421,-0.087081l-0.0610399,-0.0913596l-0.0567528,-0.0929967l-0.0531439,-0.0957053l-0.0488399,-0.0972239l-0.0355702,-0.0785161l-58.4835,-136.498l-85.3069,-34.6941l1.6563,-4.07254l86.9798,35.3747l57.2119,133.53l39.8745,-146.716l98.7754,-34.5923l1.45316,4.14937l-96.5928,33.8278l-40.5885,149.343l-0.0225819,0.0781001l-0.0343481,0.103194l-0.0392175,0.103342l-0.0435572,0.101765l-0.0476158,0.0995245l-0.0520253,0.098044l-0.0561146,0.0956574l-0.0604052,0.0937786l-0.0632345,0.0893891l-0.0664922,0.0864396l-0.070817,0.0842695l-0.073777,0.0808073l-0.0752739,0.07569l-0.0775071,0.0721187l-0.0811111,0.069356l-0.0830174,0.0654787l-0.0843972,0.0611096l-0.0858023,0.0572562l-0.0875573,0.0534663l-0.0872074,0.0488297l-0.0891394,0.0455689l-0.091282,0.0423781l-0.0893554,0.0373865l-0.0912417,0.0345281l-0.0930282,0.0311142l-0.0916852,0.0271376l-0.0922059,0.0236425l-0.0922795,0.0202878l-0.0940053,0.0171336l-0.0923043,0.0134533l-0.0925177,0.0102798l-0.0941893,0.00710578l-0.094204,0.00376815l-0.0923398,0.00044323l0.000697796,0.00023152Z" style="fill:#000;stroke-width:3px;stroke-linejoin:round;stroke:#000;"/><path d="M198.658,317.027l-1.8007,-4.01079l36.738,-16.494l30.7907,14.8713l-1.91207,3.9589l-28.9464,-13.9805l-34.8695,15.6551l-4.43524e-06,-8.87047e-06Z" style="fill:#000;stroke-width:3px;stroke-linejoin:round;stroke:#000;"/><path d="M286.099,264.105l-34.842,126.728l92.0511,-45.8883l37.8096,-115.545l-95.0187,34.7047l0,-0.000266114Z" style="fill:#592b2a;fill-rule:nonzero;stroke-width:7.5px;stroke-linejoin:round;stroke:#fff;"/><path d="M321.216,77.75l-103.207,-14.5358l50.5595,92.1336l97.8213,25.8293l-45.1738,-103.427l0,-1.42109e-13Z" style="fill:#f89720;fill-rule:nonzero;stroke-width:7.5px;stroke-linejoin:round;stroke:#fff;"/></g></g></svg>