<?xml version="1.0" encoding="UTF-8"?>
<svg width="461px" height="462px" viewBox="0 0 461 462" version="1.1" xmlns="http://www.w3.org/2000/svg" xmlns:xlink="http://www.w3.org/1999/xlink">
    <!-- Generator: Sketch 39.1 (31720) - http://www.bohemiancoding.com/sketch -->
    <title>logo</title>
    <desc>Created with Sketch.</desc>
    <defs></defs>
    <g id="Page-1" stroke="none" stroke-width="1" fill="none" fill-rule="evenodd">
        <g id="logo">
            <g id="Layer1">
                <g id="Shape1" fill="#818CCB">
                    <path d="M460.583,24.26 C460.583,10.8616 449.721,0 436.323,0 L24.758,0 C11.3596,0 0.498001,10.8616 0.498001,24.26 L0.498001,430.682 C0.498001,444.08 11.3596,454.942 24.758,454.942 L436.323,454.942 C449.721,454.942 460.583,444.08 460.583,430.682 L460.583,24.26 L460.583,24.26 Z" id="shapePath1"></path>
                </g>
                <g id="Shape2" transform="translate(0.000000, 6.000000)" fill-opacity="0.196078" fill="#000000">
                    <path d="M460.085,24.7203 C460.085,11.3219 449.223,0.4603 435.825,0.4603 L24.26,0.4603 C10.8616,0.4603 0,11.3219 0,24.7203 L0,431.142 C0,444.541 10.8616,455.402 24.26,455.402 L435.825,455.402 C449.223,455.402 460.085,444.541 460.085,431.142 L460.085,24.7203 L460.085,24.7203 Z" id="shapePath2"></path>
                </g>
                <g id="Shape3" transform="translate(0.000000, 5.000000)" fill="#3F51B5">
                    <path d="M436.596,0.125 L340.904762,0.125 L24.4853,0.125 C11.2378,0.125 0.498596,10.8642 0.498596,24.1117 L0.498596,425.956 C0.498596,439.203 11.2378,449.942 24.4853,449.942 L436.596,449.942 C449.844,449.942 460.583,439.203 460.583,425.956 L460.583,24.1117 C460.583,10.8642 449.844,0.125 436.596,0.125 Z" id="shapePath3"></path>
                </g>
                <g id="skbox" transform="translate(85.000000, 75.000000)">
                    <g id="Box">
                        <g id="Page-1">
                            <g id="Box">
                                <path d="M291.822261,244.464592 L291.822261,244.768832 L291.822261,245.047717 L291.771478,245.37731 C291.487707,247.486181 290.091535,249.280413 288.11513,250.076114 L149.647884,309.183016 C148.767783,309.748941 147.756036,310.07792 146.710957,310.137989 C145.259611,310.282981 143.805342,309.89215 142.622957,309.039348 L4.51118841,250.076114 C3.18145462,249.531028 2.09553593,248.521827 1.45576812,247.236549 L1.29495652,246.915408 L1.29495652,246.839348 C0.947288237,246.06337 0.771193702,245.221688 0.778666667,244.37163 L0.778666667,65.504375 C0.744921344,62.5295119 2.91115474,59.9843963 5.85692754,59.5379076 L143.875594,0.600027174 C144.517456,0.311364303 145.204894,0.13690223 145.906899,0.0845108696 L146.016928,0.0845108696 L146.093101,0.0845108696 C146.293209,0.0718416292 146.493921,0.0718416292 146.694029,0.0845108696 L147.091826,0.0845108696 L147.278029,0.0845108696 L147.675826,0.177472826 L147.862029,0.228179348 C148.041931,0.264275054 148.219897,0.309404808 148.395246,0.363396739 L148.446029,0.363396739 L148.818435,0.523967391 L286.930203,59.4872011 C289.804426,59.9899373 291.896382,62.4893825 291.881507,65.402962 L291.881507,244.464592 L291.822261,244.464592 L291.822261,244.464592 Z M279.879884,240.602446 L279.879884,74.6991576 L152.254725,129.191766 L152.254725,295.111957 L279.879884,240.602446 L279.879884,240.602446 Z M146.287768,118.763125 L270.705159,65.6395924 L241.412058,53.1404348 L241.05658,53.3010054 L117.020058,106.28087 L146.287768,118.763125 L146.287768,118.763125 Z M99.8724638,100.618641 L226.236522,46.6669022 L190.688696,31.5056522 L60.4651594,87.1391576 L60.4651594,157.36769 L75.699942,149.761712 C78.3889368,148.432206 81.648372,149.300086 83.3173333,151.789973 L96.2584348,171.185217 L96.2584348,107.396413 C96.2415419,107.162904 96.2415419,106.928482 96.2584348,106.694973 C96.0029729,104.098384 97.4668078,101.637213 99.8724638,100.618641 L99.8724638,100.618641 L99.8724638,100.618641 Z M51.4766377,77.9866304 L175.530087,25.0067663 L146.262377,12.5245109 L21.8449855,65.6395924 L51.138087,78.1472011 L51.4766377,77.9866304 L51.4766377,77.9866304 Z M140.286957,295.095054 L140.286957,129.191766 L108.200812,115.501005 L108.200812,190.149457 C108.568947,193.015808 106.829853,195.73441 104.070493,196.606087 L103.858899,196.648342 L103.511884,196.741304 C103.308754,196.792011 103.105623,196.825815 102.902493,196.85962 C102.699362,196.893424 102.513159,196.85962 102.318493,196.85962 L101.717565,196.85962 C101.322224,196.827691 100.930999,196.756923 100.549565,196.648342 L100.549565,196.648342 C100.368057,196.597721 100.189958,196.535621 100.016348,196.462418 C98.697989,195.934073 97.6136415,194.950325 96.9609275,193.690462 L76.3177971,162.793288 L57.1727536,172.359918 C55.3212739,173.290572 53.1187375,173.195112 51.3549822,172.107771 C49.5912268,171.02043 48.5189911,169.09702 48.5227826,167.027283 L48.5227826,89.9787228 L12.6956522,74.6738043 L12.6956522,240.602446 L140.286957,295.095054 L140.286957,295.095054 Z" id="Shape" fill="#2B2B2B"></path>
                                <path d="M279.879884,74.6991576 L279.879884,240.602446 L152.254725,295.111957 L152.254725,129.191766 L279.879884,74.6991576 L279.879884,74.6991576 Z M242.258435,232.126005 C245.285116,230.833134 246.689073,227.335121 245.394261,224.312976 C244.099449,221.29083 240.596188,219.888976 237.569507,221.181848 L202.724174,236.038859 L167.904232,250.912772 C165.938754,251.749113 164.569429,253.568923 164.312069,255.686698 C164.054709,257.804473 164.948413,259.898471 166.656533,261.179905 C168.364652,262.461338 170.627681,262.735526 172.593159,261.899185 L207.438493,247.025272 L242.258435,232.126005 L242.258435,232.126005 Z M207.438493,223.227011 C210.173881,222.165458 211.730095,219.275412 211.108421,216.411583 C210.486748,213.547754 207.871775,211.560468 204.941681,211.725082 L204.873971,211.725082 C204.131873,211.75804 203.402601,211.930051 202.724174,212.232147 L167.904232,227.089158 C165.938754,227.925499 164.569429,229.745309 164.312069,231.863084 C164.054709,233.980858 164.948413,236.074857 166.656533,237.356291 C168.364652,238.637724 170.627681,238.911912 172.593159,238.075571 L207.438493,223.227011 L207.438493,223.227011 Z" id="Shape" fill="#F5A623"></path>
                                <polygon id="Shape" fill="#F5A623" points="270.739014 65.6395924 146.321623 118.763125 117.053913 106.28087 241.12429 53.3010054 241.479768 53.1404348"></polygon>
                                <path d="M245.449275,224.325652 C246.713349,227.364153 245.279321,230.851289 242.241507,232.126005 L207.421565,247.00837 L172.576232,261.882283 C170.610754,262.718624 168.347724,262.444436 166.639605,261.163003 C164.931486,259.881569 164.037781,257.78757 164.295142,255.669796 C164.552501,253.552021 165.921826,251.732211 167.887304,250.89587 L202.707246,236.021957 L237.55258,221.164946 C239.014487,220.511791 240.678946,220.477435 242.166636,221.069709 C243.654326,221.661983 244.838495,222.830424 245.449275,224.30875 L245.449275,224.325652 L245.449275,224.325652 Z" id="Shape" fill="#2B2B2B"></path>
                                <path d="M226.261913,46.6669022 L99.8724638,100.618641 C97.4767942,101.645517 96.0244082,104.104716 96.2838261,106.694973 C96.2669333,106.928482 96.2669333,107.162904 96.2838261,107.396413 L96.2838261,171.176766 L83.3427246,151.781522 C81.6737633,149.291635 78.4143281,148.423754 75.7253333,149.753261 L60.4905507,157.359239 L60.4905507,87.1307065 L190.76487,31.4972011 L226.261913,46.6669022 L226.261913,46.6669022 Z" id="Shape" fill="#00ACC1"></path>
                                <path d="M210.815536,215.502717 C211.393551,216.975211 211.361509,218.616759 210.726471,220.065645 C210.091433,221.514532 208.905513,222.651857 207.430029,223.227011 L172.584696,238.084022 C169.546329,239.376894 166.033594,237.965581 164.738783,234.931766 C163.443971,231.897952 164.857401,228.39048 167.895768,227.097609 L202.71571,212.240598 C203.394137,211.938502 204.123409,211.766491 204.865507,211.733533 L204.933217,211.733533 C207.502165,211.5945 209.871847,213.112911 210.815536,215.502717 L210.815536,215.502717 L210.815536,215.502717 Z" id="Shape" fill="#2B2B2B"></path>
                                <polygon id="Shape" fill="#F5A623" points="175.555478 25.0067663 51.502029 77.9866304 51.1550145 78.1472011 21.861913 65.6395924 146.279304 12.5245109"></polygon>
                                <path d="M140.312348,129.191766 L140.312348,295.095054 L12.6956522,240.602446 L12.6956522,74.6738043 L48.5227826,89.9787228 L48.5227826,167.01038 C48.5189911,169.080118 49.5912268,171.003528 51.3549822,172.090869 C53.1187375,173.178209 55.3212739,173.273669 57.1727536,172.343016 L76.3177971,162.776386 L96.9609275,193.67356 C97.6136415,194.933423 98.697989,195.91717 100.016348,196.445516 C100.189958,196.518719 100.368057,196.580819 100.549565,196.63144 L100.549565,196.63144 C100.930999,196.740021 101.322224,196.810789 101.717565,196.842717 L102.318493,196.842717 L102.902493,196.842717 C103.105623,196.842717 103.308754,196.775109 103.511884,196.724402 L103.858899,196.63144 L104.070493,196.589185 C106.829853,195.717508 108.568947,192.998906 108.200812,190.132554 L108.200812,115.501005 L140.312348,129.191766 L140.312348,129.191766 Z" id="Shape" fill="#F5A623"></path>
                            </g>
                        </g>
                    </g>
                </g>
            </g>
        </g>
    </g>
</svg>