<?xml version="1.0" standalone="no"?><!DOCTYPE svg PUBLIC "-//W3C//DTD SVG 1.1//EN" "http://www.w3.org/Graphics/SVG/1.1/DTD/svg11.dtd"><svg width="100%" height="100%" viewBox="0 0 800 800" version="1.1" xmlns="http://www.w3.org/2000/svg" xmlns:xlink="http://www.w3.org/1999/xlink" xml:space="preserve" style="fill-rule:evenodd;clip-rule:evenodd;stroke-linejoin:round;stroke-miterlimit:1.41421;"><g id="Scriptogram"><path d="M290.7,594.479l-32.3313,32.3371c-11.8935,11.8992 -20.1464,26.0274 -24.8958,41.03c0,0 -16.1914,61.3535 24.8958,102.441c39.6183,39.6183 103.852,39.6183 143.471,0l272.785,-272.785c39.624,-39.6183 39.624,-103.858 0,-143.476l-165.012,-165.012l15.837,-15.8313c39.6183,-39.6183 39.6183,-103.847 0,-143.471c-39.624,-39.6183 -103.864,-39.6126 -143.471,0l-256.633,256.633c-1.11448,1.11448 -2.08036,2.30897 -3.13197,3.45774c-1.28594,1.41167 -2.64046,2.77763 -3.82924,4.24074c-32.1999,39.4812 -30.1653,97.5141 6.00104,134.703c0.00571528,0 0.0114306,0.0114306 0.0171458,0.0171458l166.298,165.715ZM365.461,668c13.8538,13.8538 17.1344,34.2288 9.9103,51.2146l-11.2991,11.2991c-18.2146,18.2203 -47.7226,18.2203 -65.9315,0.0114306c-18.2032,-18.2089 -18.2089,-47.7226 0.00571528,-65.9258l31.9484,-31.9599l35.3662,35.3604ZM165.123,390.031c-8.85297,-8.85297 -13.3623,-20.3693 -13.6081,-31.9713c0.251472,-11.5849 4.76654,-23.0954 13.6081,-31.937c18.1003,-18.1003 47.3682,-18.1917 65.6,-0.297195c15.477,15.7685 17.4202,39.7784 5.94389,57.6958l39.2183,39.2183l195,-195.005l167.361,167.463c8.49291,8.49291 12.9794,19.432 13.5395,30.571c-0.571528,11.1162 -5.04659,22.0667 -13.5395,30.5596l-211.523,211.523c-4.74368,-15.0026 -12.9908,-29.1365 -24.8843,-41.0243l-236.715,-236.796ZM489.065,132.021l-196.434,196.434c-4.42934,-15.717 -12.7279,-30.5653 -24.8843,-43.0646c-11.6763,-11.3563 -25.393,-19.3234 -39.967,-23.9356l195.36,-195.365c18.2032,-18.2032 47.7283,-18.2032 65.92,0c18.2089,18.2089 18.2089,47.7283 0.00571528,65.9315Z" style="fill:#fff;fill-rule:nonzero;"/></g></svg>