<?xml version="1.0" standalone="no"?><!DOCTYPE svg PUBLIC "-//W3C//DTD SVG 1.1//EN" "http://www.w3.org/Graphics/SVG/1.1/DTD/svg11.dtd"><svg width="100%" height="100%" viewBox="0 0 800 676" version="1.1" xmlns="http://www.w3.org/2000/svg" xmlns:xlink="http://www.w3.org/1999/xlink" xml:space="preserve" style="fill-rule:evenodd;clip-rule:evenodd;stroke-linejoin:round;stroke-miterlimit:1.41421;"><g id="GitHub"><path d="M307.692,461.538c0,12.8205 -2.00321,25.9615 -6.00962,39.4231c-4.00641,13.4615 -10.8974,25.641 -20.6731,36.5385c-9.77564,10.8974 -21.3942,16.3462 -34.8558,16.3462c-13.4615,0 -25.0801,-5.44872 -34.8558,-16.3462c-9.77564,-10.8974 -16.6667,-23.0769 -20.6731,-36.5385c-4.00641,-13.4615 -6.00962,-26.6026 -6.00962,-39.4231c0,-12.8205 2.00321,-25.9615 6.00962,-39.4231c4.00641,-13.4615 10.8974,-25.641 20.6731,-36.5385c9.77564,-10.8974 21.3942,-16.3462 34.8558,-16.3462c13.4615,0 25.0801,5.44872 34.8558,16.3462c9.77564,10.8974 16.6667,23.0769 20.6731,36.5385c4.00641,13.4615 6.00962,26.6026 6.00962,39.4231ZM615.385,461.538c0,12.8205 -2.00321,25.9615 -6.00962,39.4231c-4.00641,13.4615 -10.8974,25.641 -20.6731,36.5385c-9.77564,10.8974 -21.3942,16.3462 -34.8558,16.3462c-13.4615,0 -25.0801,-5.44872 -34.8558,-16.3462c-9.77564,-10.8974 -16.6667,-23.0769 -20.6731,-36.5385c-4.00641,-13.4615 -6.00962,-26.6026 -6.00962,-39.4231c0,-12.8205 2.00321,-25.9615 6.00962,-39.4231c4.00641,-13.4615 10.8974,-25.641 20.6731,-36.5385c9.77564,-10.8974 21.3942,-16.3462 34.8558,-16.3462c13.4615,0 25.0801,5.44872 34.8558,16.3462c9.77564,10.8974 16.6667,23.0769 20.6731,36.5385c4.00641,13.4615 6.00962,26.6026 6.00962,39.4231ZM692.308,461.538c0,-38.4615 -11.0577,-71.1538 -33.1731,-98.0769c-22.1154,-26.9231 -52.0833,-40.3846 -89.9038,-40.3846c-13.141,0 -44.391,3.36538 -93.75,10.0962c-22.7564,3.52564 -47.9167,5.28846 -75.4808,5.28846c-27.5641,0 -52.7244,-1.76282 -75.4808,-5.28846c-48.7179,-6.73077 -79.9679,-10.0962 -93.75,-10.0962c-37.8205,0 -67.7885,13.4615 -89.9038,40.3846c-22.1154,26.9231 -33.1731,59.6154 -33.1731,98.0769c0,28.2051 5.12821,52.8045 15.3846,73.7981c10.2564,20.9936 23.2372,37.5 38.9423,49.5192c15.7051,12.0192 35.2564,21.6346 58.6538,28.8462c23.3974,7.21154 45.8333,11.9391 67.3077,14.1827c21.4744,2.24359 45.3526,3.36538 71.6346,3.36538l80.7692,0c26.2821,0 50.1603,-1.12179 71.6346,-3.36538c21.4744,-2.24359 43.9103,-6.97115 67.3077,-14.1827c23.3974,-7.21154 42.9487,-16.8269 58.6538,-28.8462c15.7051,-12.0192 28.6859,-28.5256 38.9423,-49.5192c10.2564,-20.9936 15.3846,-45.5929 15.3846,-73.7981ZM800,376.923c0,66.3462 -9.77564,119.391 -29.3269,159.135c-12.1795,24.6795 -29.0865,45.9936 -50.7212,63.9423c-21.6346,17.9487 -44.2308,31.7308 -67.7885,41.3462c-23.5577,9.61538 -50.8013,17.2276 -81.7308,22.8365c-30.9295,5.60897 -58.4135,9.13462 -82.4519,10.5769c-24.0385,1.44231 -50.8013,2.16346 -80.2885,2.16346c-25,0 -47.7564,-0.480769 -68.2692,-1.44231c-20.5128,-0.961538 -44.1506,-2.96474 -70.9135,-6.00962c-26.7628,-3.04487 -51.2019,-7.85256 -73.3173,-14.4231c-22.1154,-6.57051 -44.0705,-14.8237 -65.8654,-24.7596c-21.7949,-9.9359 -41.1859,-22.9167 -58.1731,-38.9423c-16.9872,-16.0256 -30.7692,-34.4551 -41.3462,-55.2885c-19.8718,-39.4231 -29.8077,-92.4679 -29.8077,-159.135c0,-75.9615 21.7949,-139.423 65.3846,-190.385c-8.65385,-26.2821 -12.9808,-53.5256 -12.9808,-81.7308c0,-37.1795 8.17308,-72.1154 24.5192,-104.808c34.6154,0 65.0641,6.33013 91.3462,18.9904c26.2821,12.6603 56.5705,32.4519 90.8654,59.375c47.1154,-11.2179 96.6346,-16.8269 148.558,-16.8269c47.4359,0 92.3077,5.12821 134.615,15.3846c33.6538,-26.2821 63.6218,-45.6731 89.9038,-58.1731c26.2821,-12.5 56.5705,-18.75 90.8654,-18.75c16.3462,32.6923 24.5192,67.6282 24.5192,104.808c0,27.8846 -4.32692,54.8077 -12.9808,80.7692c43.5897,51.2821 65.3846,115.064 65.3846,191.346Z" style="fill:#fff;fill-rule:nonzero;"/></g></svg>