<?xml version="1.0" standalone="no"?><!DOCTYPE svg PUBLIC "-//W3C//DTD SVG 1.1//EN" "http://www.w3.org/Graphics/SVG/1.1/DTD/svg11.dtd"><svg width="100%" height="100%" viewBox="0 0 800 764" version="1.1" xmlns="http://www.w3.org/2000/svg" xmlns:xlink="http://www.w3.org/1999/xlink" xml:space="preserve" style="fill-rule:evenodd;clip-rule:evenodd;stroke-linejoin:round;stroke-miterlimit:1.41421;"><g id="LinkedIn"><path d="M181.771,248.437l0,516.146l-171.875,0l0,-516.146l171.875,0ZM192.708,89.0625c0.347222,25.3472 -8.42014,46.5278 -26.3021,63.5417c-17.8819,17.0139 -41.4062,25.5208 -70.5729,25.5208l-1.04167,0c-28.4722,0 -51.3889,-8.50694 -68.75,-25.5208c-17.3611,-17.0139 -26.0417,-38.1944 -26.0417,-63.5417c0,-25.6944 8.94097,-46.9618 26.8229,-63.8021c17.8819,-16.8403 41.2326,-25.2604 70.0521,-25.2604c28.8194,0 51.9097,8.42014 69.2708,25.2604c17.3611,16.8403 26.2153,38.1076 26.5625,63.8021ZM800,468.75l0,295.833l-171.354,0l0,-276.042c0,-36.4583 -7.03125,-65.0174 -21.0938,-85.6771c-14.0625,-20.6597 -36.0243,-30.9896 -65.8854,-30.9896c-21.875,0 -40.191,5.98958 -54.9479,17.9688c-14.7569,11.9792 -25.7812,26.8229 -33.0729,44.5312c-3.81944,10.4167 -5.72917,24.4792 -5.72917,42.1875l0,288.021l-171.354,0c0.694444,-138.542 1.04167,-250.868 1.04167,-336.979c0,-86.1111 -0.173611,-137.5 -0.520833,-154.167l-0.520833,-25l171.354,0l0,75l-1.04167,0c6.94444,-11.1111 14.0625,-20.8333 21.3542,-29.1667c7.29167,-8.33333 17.1007,-17.3611 29.4271,-27.0833c12.3264,-9.72222 27.4306,-17.2743 45.3125,-22.6562c17.8819,-5.38194 37.7604,-8.07292 59.6354,-8.07292c59.375,0 107.118,19.7049 143.229,59.1146c36.1111,39.4097 54.1667,97.1354 54.1667,173.177Z" style="fill:#fff;fill-rule:nonzero;"/></g></svg>