<?xml version="1.0" encoding="UTF-8"?>
<svg width="800px" height="738px" viewBox="0 0 800 738" version="1.1" xmlns="http://www.w3.org/2000/svg" xmlns:xlink="http://www.w3.org/1999/xlink">
    <!-- Generator: Sketch 51.2 (57519) - http://www.bohemiancoding.com/sketch -->
    <title>Group</title>
    <desc>Created with Sketch.</desc>
    <defs></defs>
    <g id="Page-1" stroke="none" stroke-width="1" fill="none" fill-rule="evenodd">
        <g id="Group">
            <rect id="Rectangle" stroke="" x="0.5" y="0.5" width="799" height="737"></rect>
            <g id="sourcerer" transform="translate(99.000000, 0.000000)" fill="#FFFFFF">
                <path d="M182.592754,702.734733 C182.592754,717.019333 186.643797,724.159891 194.751111,724.159891 C202.914181,724.159891 206.991359,717.019333 206.991359,702.734733 C206.991359,688.451875 202.914181,681.311318 194.751111,681.311318 C186.643797,681.311318 182.592754,688.451875 182.592754,702.734733 M194.751111,737 C177.916194,737 169.502221,725.578244 169.502221,702.734733 C169.502221,679.896449 177.916194,668.471208 194.751111,668.471208 C211.586027,668.471208 220,679.896449 220,702.734733 C220,725.578244 211.586027,737 194.751111,737 M115.347177,734.872469 C115.172939,734.591935 115.172939,734.280037 115.347177,733.936774 L189.22601,613.038666 C189.450778,612.81389 189.675545,612.700631 189.90554,612.700631 L202.063897,612.700631 C202.403662,612.700631 202.644111,612.853966 202.786987,613.167607 C202.924635,613.477763 202.914181,613.807086 202.741685,614.145121 L128.606721,734.959592 C128.381953,735.186111 128.151959,735.297627 127.925449,735.297627 L116.110342,735.297627 C115.770577,735.297627 115.516188,735.158231 115.347177,734.872469 M111.008641,645.265267 C111.008641,659.54464 115.091047,666.688682 123.250632,666.688682 C131.356203,666.688682 135.407247,659.54464 135.407247,645.265267 C135.407247,630.978925 131.356203,623.836625 123.250632,623.836625 C115.091047,623.836625 111.008641,630.978925 111.008641,645.265267 M98,645.265267 C98,622.420013 106.419201,611 123.250632,611 C140.02805,611 148.415887,622.420013 148.415887,645.265267 C148.415887,668.162795 140.02805,679.610687 123.250632,679.610687 C106.419201,679.610687 98,668.162795 98,645.265267" id="Shape"></path>
                <path d="M87.9163918,491.203914 L87.9163918,472.864903 C87.9163918,472.296386 88.2244066,472.012128 88.8508774,472.012128 L107.149044,472.012128 C107.716349,472.012128 108,472.296386 108,472.864903 L108,491.203914 C108,491.828236 107.716349,492.138653 107.149044,492.138653 L88.8508774,492.138653 C88.2244066,492.138653 87.9163918,491.828236 87.9163918,491.203914 M20,518.83625 L20,507.492082 C20,506.925309 20.2819119,506.639307 20.8509561,506.639307 L39.8312802,506.639307 C40.3951038,506.639307 40.6822363,506.32889 40.6822363,505.701081 L40.6822363,492.653108 C40.6822363,478.553554 48.8803024,471.670321 65.2764345,472.012128 L76.9357514,472.012128 C77.560482,472.012128 77.8737174,472.296386 77.8737174,472.864903 L77.8737174,486.000072 C77.8737174,486.568588 77.560482,486.852845 76.9357514,486.852845 L65.4452335,486.852845 C62.8923651,486.852845 60.8928793,487.632376 59.4467759,489.200155 C58.0006726,490.76096 57.278491,492.909463 57.278491,495.636946 L57.278491,505.701081 C57.278491,506.32889 57.5604028,506.639307 58.1294471,506.639307 L105.363603,506.639307 C105.929167,506.639307 106.214559,506.925309 106.214559,507.492082 L106.214559,594.145481 C106.214559,594.715741 105.929167,595 105.363603,595 L90.5527896,595 C89.9837453,595 89.7018335,594.715741 89.7018335,594.145481 L89.7018335,520.62725 C89.7018335,520.002929 89.4181815,519.689024 88.8508774,519.689024 L58.1294471,519.689024 C57.5604028,519.689024 57.278491,520.002929 57.278491,520.62725 L57.278491,594.145481 C57.278491,594.715741 56.9913586,595 56.4257946,595 L41.6167218,595 C40.990251,595 40.6822363,594.715741 40.6822363,594.145481 L40.6822363,520.62725 C40.6822363,520.002929 40.3951038,519.689024 39.8312802,519.689024 L20.8509561,519.689024 C20.2819119,519.689024 20,519.404766 20,518.83625" id="Shape"></path>
                <path d="M600,534 C600,500.309777 572.466373,473 538.5,473 C504.533627,473 477,500.309777 477,534 C477,567.690225 504.533627,595 538.5,595 C572.466373,595 600,567.690225 600,534" id="Shape"></path>
                <path d="M306.500001,607 C272.535465,607 245,634.533721 245,668.501744 C245,702.464535 272.535465,730 306.500001,730 C340.466279,730 368,702.464535 368,668.501744 C368,634.533721 340.466279,607 306.500001,607 M306.500001,622.455233 C331.888372,622.455233 352.543023,643.111629 352.543023,668.501744 C352.543023,693.886629 331.888372,714.543023 306.500001,714.543023 C281.111628,714.543023 260.456977,693.886629 260.456977,668.501744 C260.456977,643.111629 281.111628,622.455233 306.500001,622.455233" id="Shape"></path>
                <path d="M48.7623929,332.833984 C60.0454732,342.976251 70.7680662,351.532972 80.9319179,358.519829 C91.0852933,365.504943 104.402541,371.929017 120.894137,377.778115 C137.36478,383.635923 152.157453,388.357713 165.268665,391.924321 C178.381623,395.501383 194.199237,398.601037 212.744208,401.245938 C231.268225,403.882126 246.060898,405.986894 257.127466,407.561987 C268.19578,409.144047 283.093218,411.247074 301.821525,413.902428 C304.416179,414.284005 310.502966,415.149957 320.085378,416.498542 C329.660805,417.852354 336.735866,418.855953 341.308813,419.507595 C345.88176,420.159237 353.056347,421.175032 362.857017,422.572402 C372.645465,423.971516 380.52197,425.320102 386.505738,426.653005 C392.468555,427.971971 399.971402,429.994849 409.016025,432.695504 C418.048426,435.404871 425.160154,438.208325 430.358193,441.132002 C435.556233,444.057422 441.306029,447.782583 447.633773,452.281353 C451.153843,454.78338 454.179776,457.358585 456.720302,460 L602,460 C600.734102,453.542821 599.174865,447.329571 597.325781,441.365479 C579.706226,384.658687 532.96927,345.499186 457.095706,323.895686 C429.088803,315.999318 376.919835,307.217832 300.581817,297.570395 C296.090935,296.880422 288.521737,295.714784 277.884702,294.057801 C267.23719,292.40953 257.42779,290.881482 248.466977,289.494564 C239.49918,288.097193 231.839188,286.914132 225.490491,285.917503 C219.127826,284.931328 211.893873,283.182001 203.785141,280.6399 C195.685139,278.115223 186.453688,274.557328 176.104753,269.957502 C165.754071,265.364645 157.783279,260.308322 152.204597,254.7955 C146.604963,249.282678 141.853917,242.503163 137.933998,234.456952 C134.024556,226.412485 132.063723,217.564789 132.063723,207.905155 C132.063723,183.562668 144.811753,162.422636 170.32702,144.4868 C195.833556,126.561418 232.975877,117.591758 281.72954,117.591758 C336.810946,117.591758 379.477822,128.981553 409.733658,151.722813 C439.970288,174.474527 455.106937,205.223666 455.106937,243.973713 C455.106937,248.482937 457.35587,250.727093 461.885166,250.727093 L581.076889,250.727093 C584.679023,250.727093 586.49144,248.482937 586.49144,243.973713 C586.49144,191.25518 572.828471,146.209992 545.52174,108.812015 C518.195803,71.4210067 481.966674,43.9300784 436.825623,26.3653649 C391.667111,8.79193965 339.974818,0 281.72954,0 C197.757721,0 129.797328,19.8367486 77.8797941,59.4719139 C25.9535291,99.1245028 0,148.006363 0,206.126207 C0,224.603917 2.13893115,241.832355 6.42901607,257.821976 C10.722593,273.822052 16.0253962,287.790538 22.3513944,299.720465 C28.6704083,311.666073 37.4705823,322.70217 48.7623929,332.833984 Z" id="Shape"></path>
                <polygon id="Shape" points="381 730 504 730 504 607 381 607"></polygon>
            </g>
        </g>
    </g>
</svg>
