<?xml version="1.0"?>
<svg version="1.1" xmlns="http://www.w3.org/2000/svg" xmlns:xlink="http://www.w3.org/1999/xlink" width="460" height="461">
    <desc iVinci="yes" version="4.6" gridStep="20" showGrid="no" snapToGrid="no" codePlatform="0"/>
    <g id="Layer1" name="Layer 1" opacity="1">
        <g id="Shape1">
            <desc shapeID="1" type="0" basicInfo-basicType="0" basicInfo-roundedRectRadius="12" basicInfo-polygonSides="6" basicInfo-starPoints="5" bounding="rect(-230.042,-227.471,460.085,454.942)" text="" font-familyName="" font-pixelSize="20" font-bold="0" font-underline="0" font-alignment="1" strokeStyle="0" markerStart="0" markerEnd="0" shadowEnabled="0" shadowOffsetX="0" shadowOffsetY="2" shadowBlur="4" shadowOpacity="160" blurEnabled="0" blurRadius="4" transform="matrix(1,0,0,1,230.54,227.471)" pers-center="0,0" pers-size="0,0" pers-start="0,0" pers-end="0,0" locked="0" mesh="" flag=""/>
            <path id="shapePath1" d="M460.583,24.26 C460.583,10.8616 449.721,0 436.323,0 L24.758,0 C11.3596,0 0.498001,10.8616 0.498001,24.26 L0.498001,430.682 C0.498001,444.08 11.3596,454.942 24.758,454.942 L436.323,454.942 C449.721,454.942 460.583,444.08 460.583,430.682 L460.583,24.26 Z" style="stroke:none;fill-rule:evenodd;fill:#3c98f2;fill-opacity:1;"/>
        </g>
        <g id="Shape2">
            <desc shapeID="2" type="0" basicInfo-basicType="0" basicInfo-roundedRectRadius="12" basicInfo-polygonSides="6" basicInfo-starPoints="5" bounding="rect(-230.042,-227.471,460.085,454.942)" text="" font-familyName="" font-pixelSize="20" font-bold="0" font-underline="0" font-alignment="1" strokeStyle="0" markerStart="0" markerEnd="0" shadowEnabled="0" shadowOffsetX="0" shadowOffsetY="2" shadowBlur="4" shadowOpacity="160" blurEnabled="0" blurRadius="4" transform="matrix(1,0,0,1,230.042,233.931)" pers-center="0,0" pers-size="0,0" pers-start="0,0" pers-end="0,0" locked="0" mesh="" flag=""/>
            <path id="shapePath2" d="M460.085,30.7203 C460.085,17.3219 449.223,6.4603 435.825,6.4603 L24.26,6.4603 C10.8616,6.4603 0,17.3219 0,30.7203 L0,437.142 C0,450.541 10.8616,461.402 24.26,461.402 L435.825,461.402 C449.223,461.402 460.085,450.541 460.085,437.142 L460.085,30.7203 Z" style="stroke:none;fill-rule:evenodd;fill:#000000;fill-opacity:0.196078;"/>
        </g>
        <g id="Shape3">
            <desc shapeID="3" type="0" basicInfo-basicType="0" basicInfo-roundedRectRadius="12" basicInfo-polygonSides="6" basicInfo-starPoints="5" bounding="rect(-230.042,-224.909,460.084,449.817)" text="" font-familyName="" font-pixelSize="20" font-bold="0" font-underline="0" font-alignment="1" strokeStyle="0" markerStart="0" markerEnd="0" shadowEnabled="0" shadowOffsetX="0" shadowOffsetY="2" shadowBlur="4" shadowOpacity="160" blurEnabled="0" blurRadius="4" transform="matrix(1,0,0,1,230.541,230.034)" pers-center="0,0" pers-size="0,0" pers-start="0,0" pers-end="0,0" locked="0" mesh="" flag=""/>
            <path id="shapePath3" d="M460.583,29.1117 C460.583,15.8642 449.844,5.125 436.596,5.125 L24.4853,5.125 C11.2378,5.125 0.498596,15.8642 0.498596,29.1117 L0.498596,430.956 C0.498596,444.203 11.2378,454.942 24.4853,454.942 L436.596,454.942 C449.844,454.942 460.583,444.203 460.583,430.956 L460.583,29.1117 Z" style="stroke:none;fill-rule:evenodd;fill:#317cc5;fill-opacity:1;"/>
        </g>
        <g id="Shape4">
            <desc shapeID="4" type="0" basicInfo-basicType="0" basicInfo-roundedRectRadius="12" basicInfo-polygonSides="6" basicInfo-starPoints="5" bounding="rect(-178.892,-176.6,357.783,353.201)" text="" font-familyName="Helvetica" font-pixelSize="20" font-bold="0" font-underline="0" font-alignment="1" strokeStyle="0" markerStart="0" markerEnd="0" shadowEnabled="0" shadowOffsetX="0" shadowOffsetY="2" shadowBlur="4" shadowOpacity="160" blurEnabled="0" blurRadius="4" transform="matrix(1,0,0,1,281.691,278.342)" pers-center="0,0" pers-size="0,0" pers-start="0,0" pers-end="0,0" locked="0" mesh="" flag=""/>
            <path id="shapePath4" d="M460,202.934 C459.061,202.934 348.913,101.741 348.913,101.741 C348.913,101.741 102.8,348.794 102.8,348.794 C102.8,348.794 230,454.942 230,454.942 C230,454.942 441.91,454.942 441.91,454.942 C441.91,454.942 451.503,451.017 454.801,447.168 C457.816,443.65 460.583,434.957 460.583,434.957 C460.583,434.957 460,202.934 460,202.934 Z" style="stroke:none;fill-rule:evenodd;fill:#256098;fill-opacity:1;"/>
        </g>
        <g id="Shape5">
            <desc shapeID="5" type="0" basicInfo-basicType="0" basicInfo-roundedRectRadius="12" basicInfo-polygonSides="6" basicInfo-starPoints="5" bounding="rect(-16.9965,-16.9965,33.993,33.993)" text="" font-familyName="" font-pixelSize="20" font-bold="0" font-underline="0" font-alignment="1" strokeStyle="0" markerStart="0" markerEnd="0" shadowEnabled="0" shadowOffsetX="0" shadowOffsetY="2" shadowBlur="4" shadowOpacity="160" blurEnabled="0" blurRadius="4" transform="matrix(1.26669,0,0,1.26669,110.504,101.872)" pers-center="0,0" pers-size="0,0" pers-start="0,0" pers-end="0,0" locked="0" mesh="" flag=""/>
            <path id="shapePath5" d="M88.9747,101.872 C88.9747,89.9828 98.6151,80.3425 110.504,80.3425 C122.393,80.3425 132.033,89.9828 132.033,101.872 C132.033,113.761 122.393,123.401 110.504,123.401 C98.6151,123.401 88.9747,113.761 88.9747,101.872 Z" style="stroke:none;fill-rule:nonzero;fill:#ffffff;fill-opacity:1;"/>
        </g>
        <g id="Shape6">
            <desc shapeID="6" type="0" basicInfo-basicType="0" basicInfo-roundedRectRadius="12" basicInfo-polygonSides="6" basicInfo-starPoints="5" bounding="rect(-20.5898,-22.905,41.1797,45.81)" text="" font-familyName="" font-pixelSize="20" font-bold="0" font-underline="0" font-alignment="1" strokeStyle="0" markerStart="0" markerEnd="0" shadowEnabled="0" shadowOffsetX="0" shadowOffsetY="2" shadowBlur="4" shadowOpacity="160" blurEnabled="0" blurRadius="4" transform="matrix(1.26669,0,0,1.26669,143.762,66.8783)" pers-center="0,0" pers-size="0,0" pers-start="0,0" pers-end="0,0" locked="0" mesh="" flag=""/>
            <path id="shapePath6" d="M117.681,88.1172 C117.681,88.1172 141.602,45.0588 166.122,37.8824 C166.122,37.8824 174.494,36.6863 166.122,54.0294 C157.749,71.3723 130.24,94.0976 120.671,95.8917 L117.681,88.1173 L117.681,88.1172 L117.681,88.1172 Z" style="stroke:none;fill-rule:nonzero;fill:#ffffff;fill-opacity:1;"/>
        </g>
        <g id="Shape7">
            <desc shapeID="7" type="0" basicInfo-basicType="0" basicInfo-roundedRectRadius="12" basicInfo-polygonSides="6" basicInfo-starPoints="5" bounding="rect(-19.8292,-21.7973,39.6583,43.5946)" text="" font-familyName="" font-pixelSize="20" font-bold="0" font-underline="0" font-alignment="1" strokeStyle="0" markerStart="0" markerEnd="0" shadowEnabled="0" shadowOffsetX="0" shadowOffsetY="2" shadowBlur="4" shadowOpacity="160" blurEnabled="0" blurRadius="4" transform="matrix(1.26669,0,0,1.26669,74.0237,139.051)" pers-center="0,0" pers-size="0,0" pers-start="0,0" pers-end="0,0" locked="0" mesh="" flag=""/>
            <path id="shapePath7" d="M89.8551,111.44 C89.8551,111.44 49.5045,138.911 48.9064,161.039 C48.9064,161.039 51.5808,175.669 69.383,157.728 C87.1805,139.787 99.1411,121.009 99.1411,111.44 L89.8548,111.44 L89.855,111.44 L89.8551,111.44 Z" style="stroke:none;fill-rule:nonzero;fill:#ffffff;fill-opacity:1;"/>
        </g>
        <g id="Shape8">
            <desc shapeID="8" type="0" basicInfo-basicType="0" basicInfo-roundedRectRadius="12" basicInfo-polygonSides="6" basicInfo-starPoints="5" bounding="rect(-16.9965,-16.9965,33.993,33.993)" text="" font-familyName="" font-pixelSize="20" font-bold="0" font-underline="0" font-alignment="1" strokeStyle="0" markerStart="0" markerEnd="0" shadowEnabled="0" shadowOffsetX="0" shadowOffsetY="2" shadowBlur="4" shadowOpacity="160" blurEnabled="0" blurRadius="4" transform="matrix(1.26669,0,0,1.26669,353.762,103.392)" pers-center="0,0" pers-size="0,0" pers-start="0,0" pers-end="0,0" locked="0" mesh="" flag=""/>
            <path id="shapePath8" d="M353.762,81.8624 C365.651,81.8624 375.291,91.5027 375.291,103.392 C375.291,115.281 365.651,124.921 353.762,124.921 C341.873,124.921 332.233,115.281 332.233,103.392 C332.233,91.5027 341.873,81.8624 353.762,81.8624 Z" style="stroke:none;fill-rule:nonzero;fill:#ffffff;fill-opacity:1;"/>
        </g>
        <g id="Shape9">
            <desc shapeID="9" type="0" basicInfo-basicType="0" basicInfo-roundedRectRadius="12" basicInfo-polygonSides="6" basicInfo-starPoints="5" bounding="rect(-22.905,-20.5898,45.81,41.1797)" text="" font-familyName="" font-pixelSize="20" font-bold="0" font-underline="0" font-alignment="1" strokeStyle="0" markerStart="0" markerEnd="0" shadowEnabled="0" shadowOffsetX="0" shadowOffsetY="2" shadowBlur="4" shadowOpacity="160" blurEnabled="0" blurRadius="4" transform="matrix(1.26669,0,0,1.26669,388.757,136.649)" pers-center="0,0" pers-size="0,0" pers-start="0,0" pers-end="0,0" locked="0" mesh="" flag=""/>
            <path id="shapePath9" d="M367.518,110.568 C367.518,110.568 410.577,134.489 417.753,159.009 C417.753,159.009 418.949,167.381 401.606,159.009 C384.263,150.636 361.538,123.127 359.744,113.558 L367.518,110.568 L367.518,110.568 L367.518,110.568 Z" style="stroke:none;fill-rule:nonzero;fill:#ffffff;fill-opacity:1;"/>
        </g>
        <g id="Shape10">
            <desc shapeID="10" type="0" basicInfo-basicType="0" basicInfo-roundedRectRadius="12" basicInfo-polygonSides="6" basicInfo-starPoints="5" bounding="rect(-21.7374,-19.8292,43.4748,39.6584)" text="" font-familyName="" font-pixelSize="20" font-bold="0" font-underline="0" font-alignment="1" strokeStyle="0" markerStart="0" markerEnd="0" shadowEnabled="0" shadowOffsetX="0" shadowOffsetY="2" shadowBlur="4" shadowOpacity="160" blurEnabled="0" blurRadius="4" transform="matrix(1.26669,0,0,1.26669,316.203,66.9116)" pers-center="0,0" pers-size="0,0" pers-start="0,0" pers-end="0,0" locked="0" mesh="" flag=""/>
            <path id="shapePath10" d="M343.738,82.7429 C343.738,82.7429 316.496,42.3923 294.369,41.7942 C294.369,41.7942 279.624,44.4686 297.565,62.266 C315.506,80.0683 334.169,92.0289 343.737,92.0289 L343.737,82.7427 L343.738,82.7427 L343.738,82.7429 Z" style="stroke:none;fill-rule:nonzero;fill:#ffffff;fill-opacity:1;"/>
        </g>
        <g id="Shape11">
            <desc shapeID="11" type="0" basicInfo-basicType="0" basicInfo-roundedRectRadius="12" basicInfo-polygonSides="6" basicInfo-starPoints="5" bounding="rect(-16.9965,-16.9965,33.993,33.993)" text="" font-familyName="" font-pixelSize="20" font-bold="0" font-underline="0" font-alignment="1" strokeStyle="0" markerStart="0" markerEnd="0" shadowEnabled="0" shadowOffsetX="0" shadowOffsetY="2" shadowBlur="4" shadowOpacity="160" blurEnabled="0" blurRadius="4" transform="matrix(1.26669,0,0,1.26669,354.348,345.717)" pers-center="0,0" pers-size="0,0" pers-start="0,0" pers-end="0,0" locked="0" mesh="" flag=""/>
            <path id="shapePath11" d="M332.819,345.717 C332.819,333.828 342.459,324.188 354.348,324.188 C366.237,324.188 375.877,333.828 375.877,345.717 C375.877,357.606 366.237,367.246 354.348,367.246 C342.459,367.246 332.819,357.606 332.819,345.717 Z" style="stroke:none;fill-rule:nonzero;fill:#ffffff;fill-opacity:1;"/>
        </g>
        <g id="Shape12">
            <desc shapeID="12" type="0" basicInfo-basicType="0" basicInfo-roundedRectRadius="12" basicInfo-polygonSides="6" basicInfo-starPoints="5" bounding="rect(-20.5898,-22.905,41.1797,45.81)" text="" font-familyName="" font-pixelSize="20" font-bold="0" font-underline="0" font-alignment="1" strokeStyle="0" markerStart="0" markerEnd="0" shadowEnabled="0" shadowOffsetX="0" shadowOffsetY="2" shadowBlur="4" shadowOpacity="160" blurEnabled="0" blurRadius="4" transform="matrix(1.26669,0,0,1.26669,387.607,310.723)" pers-center="0,0" pers-size="0,0" pers-start="0,0" pers-end="0,0" locked="0" mesh="" flag=""/>
            <path id="shapePath12" d="M361.526,331.962 C361.526,331.962 385.447,288.903 409.966,281.727 C409.966,281.727 418.339,280.531 409.966,297.874 C401.594,315.217 374.084,337.942 364.516,339.736 L361.526,331.962 L361.526,331.962 L361.526,331.962 Z" style="stroke:none;fill-rule:nonzero;fill:#ffffff;fill-opacity:1;"/>
        </g>
        <g id="Shape13">
            <desc shapeID="13" type="0" basicInfo-basicType="0" basicInfo-roundedRectRadius="12" basicInfo-polygonSides="6" basicInfo-starPoints="5" bounding="rect(-19.8291,-21.7773,39.6583,43.5547)" text="" font-familyName="" font-pixelSize="20" font-bold="0" font-underline="0" font-alignment="1" strokeStyle="0" markerStart="0" markerEnd="0" shadowEnabled="0" shadowOffsetX="0" shadowOffsetY="2" shadowBlur="4" shadowOpacity="160" blurEnabled="0" blurRadius="4" transform="matrix(1.26669,0,0,1.26669,317.868,383.022)" pers-center="0,0" pers-size="0,0" pers-start="0,0" pers-end="0,0" locked="0" mesh="" flag=""/>
            <path id="shapePath13" d="M333.699,355.437 C333.699,355.437 293.349,382.832 292.75,404.959 C292.75,404.959 295.425,419.628 313.227,401.687 C331.025,383.746 342.985,365.006 342.985,355.437 L333.699,355.437 L333.699,355.437 L333.699,355.437 Z" style="stroke:none;fill-rule:nonzero;fill:#ffffff;fill-opacity:1;"/>
        </g>
        <g id="Shape14">
            <desc shapeID="14" type="0" basicInfo-basicType="0" basicInfo-roundedRectRadius="12" basicInfo-polygonSides="6" basicInfo-starPoints="5" bounding="rect(-16.9965,-16.9965,33.993,33.993)" text="" font-familyName="" font-pixelSize="20" font-bold="0" font-underline="0" font-alignment="1" strokeStyle="0" markerStart="0" markerEnd="0" shadowEnabled="0" shadowOffsetX="0" shadowOffsetY="2" shadowBlur="4" shadowOpacity="160" blurEnabled="0" blurRadius="4" transform="matrix(1.26669,0,0,1.26669,108.78,345.028)" pers-center="0,0" pers-size="0,0" pers-start="0,0" pers-end="0,0" locked="0" mesh="" flag=""/>
            <path id="shapePath14" d="M108.78,366.558 C96.8912,366.558 87.2509,356.917 87.2509,345.028 C87.2509,333.139 96.8912,323.499 108.78,323.499 C120.669,323.499 130.309,333.139 130.309,345.028 C130.309,356.917 120.669,366.558 108.78,366.558 Z" style="stroke:none;fill-rule:nonzero;fill:#ffffff;fill-opacity:1;"/>
        </g>
        <g id="Shape15">
            <desc shapeID="15" type="0" basicInfo-basicType="0" basicInfo-roundedRectRadius="12" basicInfo-polygonSides="6" basicInfo-starPoints="5" bounding="rect(-22.905,-20.5898,45.81,41.1797)" text="" font-familyName="" font-pixelSize="20" font-bold="0" font-underline="0" font-alignment="1" strokeStyle="0" markerStart="0" markerEnd="0" shadowEnabled="0" shadowOffsetX="0" shadowOffsetY="2" shadowBlur="4" shadowOpacity="160" blurEnabled="0" blurRadius="4" transform="matrix(1.26669,0,0,1.26669,73.7866,311.771)" pers-center="0,0" pers-size="0,0" pers-start="0,0" pers-end="0,0" locked="0" mesh="" flag=""/>
            <path id="shapePath15" d="M95.0255,337.852 C95.0255,337.852 51.9671,313.931 44.7907,289.411 C44.7907,289.411 43.5946,281.039 60.9377,289.411 C78.2806,297.784 101.006,325.293 102.8,334.862 L95.0256,337.852 L95.0255,337.852 L95.0255,337.852 Z" style="stroke:none;fill-rule:nonzero;fill:#ffffff;fill-opacity:1;"/>
        </g>
        <g id="Shape16">
            <desc shapeID="16" type="0" basicInfo-basicType="0" basicInfo-roundedRectRadius="12" basicInfo-polygonSides="6" basicInfo-starPoints="5" bounding="rect(-21.7274,-19.8292,43.4547,39.6584)" text="" font-familyName="" font-pixelSize="20" font-bold="0" font-underline="0" font-alignment="1" strokeStyle="0" markerStart="0" markerEnd="0" shadowEnabled="0" shadowOffsetX="0" shadowOffsetY="2" shadowBlur="4" shadowOpacity="160" blurEnabled="0" blurRadius="4" transform="matrix(1.26669,0,0,1.26669,146.398,381.507)" pers-center="0,0" pers-size="0,0" pers-start="0,0" pers-end="0,0" locked="0" mesh="" flag=""/>
            <path id="shapePath16" d="M118.877,365.676 C118.877,365.676 146.08,406.026 168.207,406.625 C168.207,406.625 182.971,403.95 165.03,386.153 C147.089,368.351 128.445,356.39 118.877,356.39 L118.877,365.676 L118.877,365.676 L118.877,365.676 Z" style="stroke:none;fill-rule:nonzero;fill:#ffffff;fill-opacity:1;"/>
        </g>
        <g id="Shape17">
            <desc shapeID="17" type="0" basicInfo-basicType="0" basicInfo-roundedRectRadius="12" basicInfo-polygonSides="6" basicInfo-starPoints="5" bounding="rect(-3.76189,-7.24995,7.52377,14.4999)" text="" font-familyName="" font-pixelSize="20" font-bold="0" font-underline="0" font-alignment="1" strokeStyle="0" markerStart="0" markerEnd="0" shadowEnabled="0" shadowOffsetX="0" shadowOffsetY="2" shadowBlur="4" shadowOpacity="160" blurEnabled="0" blurRadius="4" transform="matrix(1,0,0,1,197.685,195.684)" pers-center="0,0" pers-size="0,0" pers-start="0,0" pers-end="0,0" locked="0" mesh="" flag=""/>
            <path id="shapePath17" d="M193.923,188.434 L193.923,202.934 C193.923,202.836 195.434,202.62 196.416,202.292 C197.398,201.963 198.108,201.499 198.89,200.894 C199.668,200.29 200.231,199.55 200.733,198.666 C201.231,197.786 201.447,196.74 201.447,195.535 C201.447,193.571 201.145,192.098 199.91,191.112 C198.682,190.134 197.7,189.239 193.923,188.434 Z" style="stroke:none;fill-rule:nonzero;fill:#ffffff;fill-opacity:1;"/>
        </g>
        <g id="Shape18">
            <desc shapeID="18" type="0" basicInfo-basicType="0" basicInfo-roundedRectRadius="12" basicInfo-polygonSides="6" basicInfo-starPoints="5" bounding="rect(-4.07727,-6.15459,8.15453,12.3092)" text="" font-familyName="" font-pixelSize="20" font-bold="0" font-underline="0" font-alignment="1" strokeStyle="0" markerStart="0" markerEnd="0" shadowEnabled="0" shadowOffsetX="0" shadowOffsetY="2" shadowBlur="4" shadowOpacity="160" blurEnabled="0" blurRadius="4" transform="matrix(1,0,0,1,186.069,170.269)" pers-center="0,0" pers-size="0,0" pers-start="0,0" pers-end="0,0" locked="0" mesh="" flag=""/>
            <path id="shapePath18" d="M184.107,165.663 C183.45,166.192 182.932,166.845 182.558,167.627 C182.177,168.409 181.992,169.327 181.992,170.384 C181.992,172.046 183.201,173.33 184.262,174.237 C185.316,175.139 186.369,175.872 190.146,176.424 L190.146,164.114 C186.369,164.114 187.782,164.239 186.978,164.492 C186.169,164.745 184.757,165.134 184.107,165.663 Z" style="stroke:none;fill-rule:nonzero;fill:#ffffff;fill-opacity:1;"/>
        </g>
        <g id="Shape19">
            <desc shapeID="19" type="0" basicInfo-basicType="0" basicInfo-roundedRectRadius="12" basicInfo-polygonSides="6" basicInfo-starPoints="5" bounding="rect(-94.4248,-95.8412,188.85,191.682)" text="" font-familyName="" font-pixelSize="20" font-bold="0" font-underline="0" font-alignment="1" strokeStyle="0" markerStart="0" markerEnd="0" shadowEnabled="0" shadowOffsetX="0" shadowOffsetY="2" shadowBlur="4" shadowOpacity="160" blurEnabled="0" blurRadius="4" transform="matrix(1.26669,0,0,1.26669,230.108,223.272)" pers-center="0,0" pers-size="0,0" pers-start="0,0" pers-end="0,0" locked="0" mesh="" flag=""/>
            <path id="shapePath19" d="M292.304,258.556 C292.304,258.556 265.99,229.85 291.108,187.988 L349.715,115.028 L338.95,101.871 C338.95,101.871 297.088,143.734 275.559,156.891 C275.559,156.891 246.853,189.184 194.226,164.067 L126.051,107.852 L110.502,115.028 C110.502,115.028 167.913,179.18 173.893,191.361 C179.874,203.537 187.05,235.831 167.913,263.34 C148.776,290.85 116.482,325.536 110.502,335.104 L123.658,344.673 C123.658,344.673 178.678,289.654 195.422,283.673 C212.167,277.693 227.716,263.34 267.186,283.673 C267.186,283.673 332.97,332.712 340.146,344.673 L349.715,326.732 C349.715,326.732 312.637,295.634 292.304,258.556 Z" style="stroke:none;fill-rule:nonzero;fill:#ffffff;fill-opacity:1;"/>
        </g>
    </g>
</svg>
