<?xml version="1.0" standalone="no"?><!DOCTYPE svg PUBLIC "-//W3C//DTD SVG 1.1//EN" "http://www.w3.org/Graphics/SVG/1.1/DTD/svg11.dtd"><svg width="100%" height="100%" viewBox="0 0 460 461" version="1.1" xmlns="http://www.w3.org/2000/svg" xmlns:xlink="http://www.w3.org/1999/xlink" xml:space="preserve" style="fill-rule:evenodd;clip-rule:evenodd;stroke-linejoin:round;stroke-miterlimit:1.41421;"><g id="SSIL"><path id="i" d="M460.583,24.26c0,-13.3984 -10.8616,-24.26 -24.26,-24.26l-411.565,0c-13.3984,0 -24.26,10.8616 -24.26,24.26l0,406.422c0,13.3984 10.8616,24.26 24.26,24.26l411.565,0c13.3984,0 24.26,-10.8616 24.26,-24.26l0,-406.422Z" style="fill:#d37e95;"/><path id="i1" d="M460.085,30.7203c0,-13.3984 -10.8616,-24.26 -24.26,-24.26l-411.565,0c-13.3984,0 -24.26,10.8616 -24.26,24.26l0,406.422c0,13.3984 10.8616,24.26 24.26,24.26l411.565,0c13.3984,0 24.26,-10.8616 24.26,-24.26l0,-406.422Z" style="fill:#000;fill-opacity:0.197608;"/><path id="i2" d="M460.583,29.1117c0,-13.2475 -10.7392,-23.9867 -23.9867,-23.9867l-412.111,0c-13.2475,0 -23.9867,10.7392 -23.9867,23.9867l0,401.844c0,13.2475 10.7392,23.9867 23.9867,23.9867l412.111,0c13.2475,0 23.9867,-10.7392 23.9867,-23.9867l0,-401.844Z" style="fill:#d31145;"/><path id="SSIL1" d="M322.384,168.624l-90.9713,-53.4712l-80.3917,44.5971l18.5116,11.1523l61.2003,-35.3056l82.4671,48.0083l-0.763361,95.9929l-46.9467,26.67l0.453236,19.8832l63.6933,-36.4625l0.178897,-105.523l14.9452,-9.37508l-0.63216,122.58l-91.174,51.4673l-0.560607,-54.1033l46.2075,-24.1414l0.548675,-79.545l-68.4521,-40.16l-61.1169,34.7092l-45.7065,-26.336l107.193,-60.8901l105.356,61.4745l-14.0387,8.7787l-0.000573355,8.77361e-05ZM98.0987,305.731l93.4284,55.0816l-0.298171,-56.763l-43.6668,-25.5965l0.262408,-70.2415l-17.0922,-9.64939l-0.512883,89.743l43.9413,25.7635l0.345905,16.3408l-59.2561,-34.6376l0.846859,-121.053l45.5034,26.2048l-0.477109,68.5359l43.5832,25.6084l0.119274,97.126l-126.683,-75.1437l0.0596368,-175.18l153.162,-86.6416l151.074,88.3472l-0.989979,175.383l-152.947,87.214l-7.43085,-4.12694l-0.333961,-117.999l-42.2832,-24.4276l0.417458,-59.435l51.6822,-29.3657l51.2646,30.0813l-0.417471,59.2679l-45.5513,24.5588l0.0835107,94.2873l125.382,-71.5536l0.978051,-152.458l-131.334,-76.4317l-132.658,74.8454l-0.202771,152.315l-0.000341732,0.000447454Z" style="fill:#fff;fill-rule:nonzero;"/></g></svg>