<?xml version="1.0" standalone="no"?><!DOCTYPE svg PUBLIC "-//W3C//DTD SVG 1.1//EN" "http://www.w3.org/Graphics/SVG/1.1/DTD/svg11.dtd"><svg width="100%" height="100%" viewBox="0 0 800 800" version="1.1" xmlns="http://www.w3.org/2000/svg" xmlns:xlink="http://www.w3.org/1999/xlink" xml:space="preserve" style="fill-rule:evenodd;clip-rule:evenodd;stroke-linejoin:round;stroke-miterlimit:1.41421;"><path d="M800,109.415c0,-60.4282 -48.9867,-109.415 -109.415,-109.415l-581.17,0c-60.4282,0 -109.415,48.9867 -109.415,109.415l0,581.17c0,60.4282 48.9867,109.415 109.415,109.415l581.17,0c60.4282,0 109.415,-48.9867 109.415,-109.415l0,-581.17ZM508.208,384.14c25.2329,7.25039 44.7682,20.643 58.6062,40.1779c13.8371,19.5353 20.7559,43.5011 20.7563,71.8974c-0.000398549,43.501 -14.8555,75.9252 -44.5651,97.2728c-29.7104,21.3477 -74.8859,32.0215 -135.527,32.0215l-195.049,0l-7.95808e-12,-451.02l176.429,8.6402e-12c63.2862,0.000450783 109.072,9.46593 137.358,28.3964c28.4887,18.9314 42.7332,49.241 42.7337,90.929c-0.000455484,21.9522 -5.1895,40.6817 -15.5673,56.1887c-10.3786,15.3062 -25.4371,26.6849 -45.1756,34.1361ZM398.932,546.362c23.605,5.63479e-05 41.3089,-4.93404 53.1118,-14.8024c12.0058,-9.86814 18.0089,-24.7712 18.0092,-44.7093c-0.000341613,-19.535 -5.90165,-34.136 -17.7039,-43.803c-11.8029,-9.86809 -29.6086,-14.8022 -53.4171,-14.8024l-68.9843,0l0,118.117l68.9843,0ZM394.964,349.098c18.5177,0.000281739 32.5587,-4.02758 42.1232,-12.0836c9.56392,-8.05543 14.346,-19.9376 14.3463,-35.6466c-0.000284678,-15.5069 -4.78236,-27.2884 -14.3463,-35.3445c-9.56449,-8.25676 -23.6055,-12.3853 -42.1232,-12.3857l-65.0162,0l0,95.4604l65.0162,0Z" style="fill:#000;"/></svg>