<?xml version="1.0" standalone="no"?><!DOCTYPE svg PUBLIC "-//W3C//DTD SVG 1.1//EN" "http://www.w3.org/Graphics/SVG/1.1/DTD/svg11.dtd"><svg width="100%" height="100%" viewBox="0 0 800 643" version="1.1" xmlns="http://www.w3.org/2000/svg" xmlns:xlink="http://www.w3.org/1999/xlink" xml:space="preserve" style="fill-rule:evenodd;clip-rule:evenodd;stroke-linejoin:round;stroke-miterlimit:1.41421;"><g id="CoffeeScript"><path id="c133de6af664cd4f011a55de6b001a2b" d="M317.6,28.3522c0.727819,4.36684 -1.45564,8.00594 -8.73376,11.645c-9.46158,-5.09459 -29.8404,-8.00594 -46.5801,-6.55015c-18.1953,1.45557 -33.4795,7.27812 -31.296,19.6509c2.91128,12.373 20.3788,19.6511 51.6748,16.7398c76.4205,-6.55015 75.6927,-58.2251 187.776,-68.4143c87.3377,-8.00616 136.101,18.9231 142.652,51.6747c5.09466,25.4735 -16.0119,50.2194 -79.3318,55.3138c-56.0417,5.09481 -88.7934,-10.1892 -91.7046,-25.4735c-1.45564,-8.00594 2.91128,-19.6509 29.8404,-22.5622c2.9112,12.373 18.1953,25.4735 54.5861,21.8344c26.2013,-2.18331 48.0358,-11.645 45.1245,-26.2013c-2.91128,-15.2843 -30.5682,-24.0182 -74.237,-20.3791c-88.7934,8.00616 -110.628,56.7698 -186.321,63.3199c-53.8583,5.09459 -97.5271,-14.5563 -103.35,-43.6689c-2.18346,-10.9172 -2.18346,-36.3907 54.5861,-41.4855c29.1125,-2.18353 52.4026,2.91128 55.3139,14.5563l7.33319e-05,0ZM33.752,332.578c-24.7457,31.2961 -35.6629,67.6867 -33.4795,103.35c2.18346,35.6629 19.651,64.7757 47.308,87.3376c29.1125,22.5624 60.4086,29.1125 96.0715,22.5624c13.8285,-2.18353 29.1125,-9.46165 42.941,-13.8285c-29.1125,0 -53.8583,-9.46143 -78.604,-29.1125c-26.9292,-19.6511 -45.1245,-47.3079 -49.4914,-80.7875c-6.5503,-31.2959 0,-60.4084 17.4675,-85.8821c19.651,-24.7455 45.1245,-38.5742 78.604,-42.9408c33.4795,-2.18375 62.592,6.55015 91.7046,26.929c-6.5503,-9.46165 -16.0119,-16.0118 -24.7457,-24.7457c-29.1125,-19.6511 -60.4086,-29.1125 -98.9827,-19.6511c-34.9351,7.27834 -64.0476,25.4737 -88.7934,56.7698l0,-0.000219996l7.33319e-05,-4.54747e-13ZM423.86,164.453c-93.8881,0 -177.587,-9.46143 -237.995,-22.5622c-64.7755,-16.0118 -98.9827,-33.4796 -98.9827,-56.0416c0,-9.46165 4.36691,-17.4678 17.4676,-26.9292c-40.7576,16.012 -62.5921,29.1125 -62.5921,49.4912c2.18346,22.5624 38.5742,45.1246 112.811,62.5922c69.8702,17.4676 159.391,26.9292 267.108,26.9292c109.9,0 197.238,-9.46165 267.108,-26.9292c74.2371,-17.4676 109.9,-40.7577 109.9,-62.5922c0,-16.0118 -16.0119,-31.2959 -45.1245,-42.9408c6.55023,4.36684 11.645,11.645 11.645,19.6509c0,22.5624 -33.4795,40.7577 -101.166,56.0416c-62.592,13.8287 -142.652,23.2901 -240.179,23.2901l-0.000146664,0l-1.13687e-13,4.54747e-13ZM691.696,227.045c-69.8702,16.0118 -159.391,26.929 -267.108,26.929c-109.9,0 -199.421,-11.645 -269.291,-26.929c-62.592,-16.012 -96.0715,-33.4796 -107.717,-51.6749c11.645,78.604 38.5742,152.841 74.237,218.344c26.9292,40.7577 53.8583,76.4206 80.7874,114.995c11.645,22.5622 19.651,45.1246 24.7457,67.6867c17.4675,24.7457 42.941,40.7577 74.2371,49.4914c38.5741,13.8283 78.604,19.6511 119.362,17.4676l4.36684,0c40.7576,2.18353 83.6987,-4.36684 123.001,-17.4676c29.1125,-9.46143 53.8583,-24.7457 72.0536,-49.4914l2.18346,0c4.36684,-22.5622 11.645,-45.1246 22.5622,-67.6867c26.9292,-38.574 53.8583,-74.2369 80.7875,-114.995c35.6628,-64.7755 60.4086,-139.013 74.2371,-218.344c-14.5563,20.3791 -48.0358,37.8464 -108.444,51.6749l-7.33319e-05,0l-0.000146664,0l1.13687e-13,0Z" style="fill:#000;fill-rule:nonzero;"/></g></svg>