<?xml version="1.0" standalone="no"?><!DOCTYPE svg PUBLIC "-//W3C//DTD SVG 1.1//EN" "http://www.w3.org/Graphics/SVG/1.1/DTD/svg11.dtd"><svg width="100%" height="100%" viewBox="0 0 799 793" version="1.1" xmlns="http://www.w3.org/2000/svg" xmlns:xlink="http://www.w3.org/1999/xlink" xml:space="preserve" style="fill-rule:evenodd;clip-rule:evenodd;stroke-linejoin:round;stroke-miterlimit:1.41421;"><g id="Ruby"><path id="Ruby1" d="M570.729,601.613l169.968,150.85l-334.435,-26.2755c65.5214,-39.5838 119.574,-86.8545 160.047,-124.489c0.666511,0.12986 1.37526,0.201831 2.08402,0.201831c0.774466,-0.00156458 1.55519,-0.0938747 2.33592,-0.287882ZM758.849,691.755l31.3041,-409.99c-15.4862,39.5588 -39.9859,85.6294 -71.7469,134.823l40.4428,275.167ZM582.097,592.299l169.575,150.506l-45.2727,-308.011c-37.3199,55.5519 -82.1326,112.349 -124.303,157.505ZM384.027,739.046c-36.5251,20.2363 -74.1188,36.353 -112.191,48.1217l390.81,-26.2818l-278.492,-21.8759l-0.126731,0.0359853ZM57.65,541.557l102.369,239.208l84.2541,-279.121l-186.623,39.9124ZM269.129,487.48l285.038,91.5545l-72.7341,-288.202l-212.304,196.647ZM497.384,262.209l265.711,-17.7861l-207.746,-169.675l-57.9645,187.462ZM648.521,0.788548l-174.36,-0.788548l77.5139,54.2752l96.8459,-53.4867ZM6.70422,440.183l-5.73731,169.996l41.8196,-76.2732l-36.0823,-93.723ZM101.96,508.477c33.144,2.11375 66.6245,-5.23039 100.399,-20.0141c22.7505,-10.7815 46.3522,-24.4262 70.0415,-40.4647c33.9748,-24.0038 68.2156,-54.028 102.707,-88.2109c124.059,-122.949 175.069,-260.451 120.857,-315.198c-12.9359,-13.0548 -31.4543,-19.7278 -55.0544,-19.831c-71.4387,-0.308222 -178.213,53.4695 -269.215,143.694c-86.9687,86.2052 -143.364,188.525 -143.666,260.687c-0.106391,25.6575 6.9921,45.8719 21.0952,60.0908c12.5432,12.6715 30.3653,17.8065 52.8358,19.2474ZM360.797,734.984c3.88954,-2.01205 7.765,-4.046 11.5904,-6.11594l-114.718,-221.344l-86.3381,285.983c0.722835,-0.0938747 6.55402,-0.794806 6.55402,-0.794806c7.53501,-0.959087 14.9777,-2.06211 22.3281,-3.30908c47.4349,-8.08731 94.3676,-22.8945 139.488,-44.0257c7.14074,-3.33881 14.161,-6.81061 21.0952,-10.3935ZM595.077,552.415l2.7208,-3.1229c1.8994,-2.22796 3.81288,-4.49816 5.71697,-6.77619c0,0 5.89533,-7.0187 8.18588,-9.80678c3.85512,-4.66244 7.68678,-9.42033 11.5325,-14.2048c3.53282,-4.41211 7.05625,-8.83831 10.5734,-13.3443c3.68928,-4.72659 7.37855,-9.46257 11.0397,-14.2909c8.28757,-10.9098 16.6675,-22.3484 25.6231,-34.984c9.47665,-13.3678 18.631,-26.82 27.2487,-40.0282l-15.5378,-9.50169c-41.2595,-25.2288 -124.181,-76.0479 -178.68,-109.525l70.5218,279.426c6.56967,-7.21427 13.5054,-15.0591 21.0545,-23.8411ZM794.391,102.535l-219.401,-30.805l209.165,171.051c7.34883,-24.2447 12.1349,-47.7572 14.2189,-69.9351c0.300399,-3.10882 0.492842,-6.23485 0.680592,-9.38434c0.178362,-2.8976 0.28006,-5.80615 0.358289,-8.72096c0.50223,-18.8892 -1.18908,-36.4359 -5.0223,-52.2053ZM710.045,402.608c0.538215,-0.708754 1.14058,-1.50512 1.7977,-2.46108c4.17586,-5.91254 10.115,-15.5863 16.7191,-27.2378c18.3807,-32.4134 41.053,-78.6263 50.5077,-112.639l-272.881,18.2054c56.9178,34.9777 140.063,85.9329 181.4,111.217l22.0402,13.4522c0.131425,-0.164281 0.265978,-0.344207 0.416178,-0.536651ZM382.953,725.515l0.852695,-0.480326c59.526,-32.9876 112.728,-73.5681 172.326,-131.561l-290.103,-93.5728l116.924,225.614ZM0,640.737c1.28139,37.7783 9.29829,68.9682 23.8457,92.9219l13.5461,-161.328l-37.3919,68.4065ZM52.8577,561.671l-15.6301,186.185c22.2702,29.1325 52.0254,42.1419 96.2654,42.1419c4.45592,0 9.08394,-0.122037 14.0468,-0.364547l-7.81507,-19.4196c-16.9115,-42.0121 -65.1694,-161.854 -86.867,-208.543ZM791.12,91.0413c-3.21677,-9.83964 -7.32223,-18.9251 -12.2209,-27.0766c-19.7638,-32.8796 -53.9029,-53.9169 -101.496,-62.5456l-106.33,58.7202l220.047,30.902Z" style="fill:#000;fill-rule:nonzero;"/></g></svg>